<svg width="20" height="21" viewBox="0 0 20 21" fill="none" xmlns="http://www.w3.org/2000/svg">
<path d="M16.6667 3.14648H3.33333C1.5 3.14648 0 4.64648 0 6.47982V14.8132C0 16.6465 1.5 18.1465 3.33333 18.1465H16.6667C18.5 18.1465 20 16.6465 20 14.8132V6.47982C20 4.64648 18.5 3.14648 16.6667 3.14648ZM18 7.97982L11.4167 12.3965C11 12.6465 10.5 12.8132 10 12.8132C9.5 12.8132 9 12.6465 8.58333 12.3965L2 7.97982C1.66667 7.72982 1.58333 7.22982 1.83333 6.81315C2.08333 6.47982 2.58333 6.39648 3 6.64648L9.58333 11.0632C9.83333 11.2298 10.25 11.2298 10.5 11.0632L17.0833 6.64648C17.5 6.39648 18 6.47982 18.25 6.89648C18.4167 7.22982 18.3333 7.72982 18 7.97982Z" fill="white"/>
</svg>
