<svg width="102" height="106" viewBox="0 0 102 106" fill="none" xmlns="http://www.w3.org/2000/svg">
<path d="M32.5625 105.155H92.4247C97.5281 105.155 101.663 101.02 101.663 95.9164V11.7334L32.5625 11.9271V105.155Z" fill="#F3C9BF"/>
<path d="M5.76902 93.1252L32.5618 105.155V11.9267L9.01559 1.57189C4.91466 -0.227961 0.3125 2.768 0.3125 7.25624V84.6955C0.3125 88.3408 2.4541 91.6329 5.76902 93.1252Z" fill="#FF8357"/>
<path d="M8.05469 1.15054L70.2635 0C73.9658 0 77.6338 0.786012 81.0171 2.28969L101.67 11.7218L32.5691 11.9155L8.05469 1.15054Z" fill="#FF642D"/>
<path d="M63.8928 64.5557H44.3906V105.155H63.8928V64.5557Z" fill="#FF8357"/>
<path d="M90.76 33.9922H71.2578V105.155H90.76V33.9922Z" fill="#FF8357"/>
<path d="M4.96875 17.4854L26.4645 26.553V88.3176L4.96875 79.1019V17.4854Z" fill="#FF642D"/>
<path d="M4.96875 65.7402L26.4645 74.8078V88.3181L4.96875 79.1024V65.7402Z" fill="#FF642D"/>
</svg>
