<svg width="127" height="104" viewBox="0 0 127 104" fill="none" xmlns="http://www.w3.org/2000/svg">
<path d="M19.3478 0H101.431C107.655 0 112.717 5.00966 112.717 11.1973V60.1035H8.0625V11.1973C8.0625 5.00966 13.124 0 19.3478 0Z" fill="#7D73FF"/>
<path d="M0.5 60.1035H114.002V94.0427C114.002 99.536 109.503 104 103.967 104H10.5355C4.99911 104 0.5 99.536 0.5 94.0427V60.1035Z" fill="#7D73FF"/>
<path d="M28.7071 0H110.791C117.015 0 122.076 5.00966 122.076 11.1973V60.1035H17.4219V11.1973C17.4219 5.00966 22.4834 0 28.7071 0Z" fill="#B1ABFF"/>
<path d="M13 60.1035H126.502V94.0427C126.502 99.536 122.003 104 116.467 104H23.0355C17.4991 104 13 99.536 13 94.0427V60.1035Z" fill="#A49DFF"/>
<path d="M42.5797 17.0498H96.9064C101.218 17.0498 104.705 20.5218 104.705 24.7875V60.0907H34.7812V24.7999C34.7812 20.5218 38.2806 17.0622 42.5797 17.0622V17.0498Z" fill="#7D73FF"/>
<path d="M26.1094 60.6122V60.0708C26.1094 47.407 35.8199 37.1465 47.8051 37.1465H91.0215C103.007 37.1465 112.717 47.407 112.717 60.0708L26.1094 60.6122Z" fill="white"/>
<path d="M83.2711 60.6123L69.6113 77.6625L55.5391 60.6123H83.2711Z" fill="#7D73FF"/>
</svg>
