<svg width="98" height="113" viewBox="0 0 98 113" fill="none" xmlns="http://www.w3.org/2000/svg">
<path d="M55.2891 20.731V3.69531" stroke="#7E73FF" stroke-width="7" stroke-miterlimit="10" stroke-linecap="round"/>
<path d="M79.1641 20.731V3.69531" stroke="#7E73FF" stroke-width="7" stroke-miterlimit="10" stroke-linecap="round"/>
<path d="M31.4141 20.731V3.69531" stroke="#7E73FF" stroke-width="7" stroke-miterlimit="10" stroke-linecap="round"/>
<path d="M95.9752 97.201L85.0327 42.0432C85.0327 34.068 78.5856 27.6071 70.6275 27.6071H17.0485L19.9825 22.0547L8.03268 29.2728C7.54159 29.5378 7.0631 29.8154 6.60978 30.1309C2.83219 32.7556 0.351562 37.1092 0.351562 42.0432V98.059C0.351562 106.034 6.79866 112.495 14.7568 112.495H76.8983C79.0137 112.495 81.6203 112.495 85.0705 109.605L95.9626 97.2136L95.9752 97.201Z" fill="#7E73FF"/>
<path d="M83.226 20.0508H27.3427C19.3869 20.0508 12.9375 26.5141 12.9375 34.4869V90.4902C12.9375 98.463 19.3869 104.926 27.3427 104.926H83.226C91.1818 104.926 97.6313 98.463 97.6313 90.4902V34.4869C97.6313 26.5141 91.1818 20.0508 83.226 20.0508Z" fill="#B2ABFF"/>
<path d="M74.1018 33.2871H36.4895C30.7869 33.2871 26.1641 37.9199 26.1641 43.6347V81.3277C26.1641 87.0425 30.7869 91.6753 36.4895 91.6753H74.1018C79.8044 91.6753 84.4272 87.0425 84.4272 81.3277V43.6347C84.4272 37.9199 79.8044 33.2871 74.1018 33.2871Z" fill="white"/>
<path d="M75.9478 56.7706L62.9906 54.9661C62.6255 54.9156 62.3107 54.6885 62.147 54.3604L56.2791 42.448C55.8762 41.6152 54.6925 41.6278 54.2896 42.448L48.5224 54.1585C48.3587 54.4866 48.0565 54.7137 47.6914 54.7642L34.6209 56.7454C33.7143 56.8842 33.3617 57.9947 34.0165 58.6382L43.2716 67.6735C43.536 67.9385 43.6619 68.3044 43.5864 68.6704L41.1687 81.8194C41.005 82.728 41.9494 83.4346 42.7679 83.0056L54.7681 76.8475C55.0955 76.6834 55.4858 76.6834 55.8006 76.8475L67.083 82.9551C67.8889 83.3968 68.8459 82.7153 68.7074 81.8068L66.6801 68.9858C66.6297 68.6325 66.7431 68.2666 67.0075 68.0142L76.59 58.6509C77.2448 58.0073 76.8796 56.8842 75.973 56.758L75.9478 56.7706Z" fill="#7E73FF"/>
</svg>
