<svg width="149" height="113" viewBox="0 0 149 113" fill="none" xmlns="http://www.w3.org/2000/svg">
<path d="M108.725 0.0703125L75.2285 30.7676C72.5721 33.2033 71.0575 36.6414 71.0575 40.2425L82.9531 113H59.6978C53.2665 113 48.0469 107.779 48.0469 101.346V39.7181C48.0469 36.4549 49.4217 33.3315 51.8218 31.1289L82.3822 3.13538C84.526 1.16581 87.3339 0.0703125 90.2583 0.0703125H108.737H108.725Z" fill="#A59DFF"/>
<path d="M108.726 0.0703125L74.8452 31.1172C72.4335 33.3199 71.0703 36.4432 71.0703 39.7064V101.334C71.0703 107.767 76.2899 112.988 82.7213 112.988H136.758C143.19 112.988 148.409 107.767 148.409 101.334V39.8929C148.409 36.5248 146.953 33.3082 144.401 31.0939L108.726 0.0703125Z" fill="#D8D5FF"/>
<path d="M65.8359 92.1856V49.8945C65.8359 46.9195 63.4242 44.5078 60.4492 44.5078C57.4742 44.5078 55.0625 46.9195 55.0625 49.8945V92.1855C55.0625 95.1606 57.4742 97.5723 60.4492 97.5723C63.4242 97.5723 65.8359 95.1606 65.8359 92.1856Z" fill="#7E73FF"/>
<path d="M54.2006 51.9688H6.22201C2.82452 51.9688 0.0703125 54.7237 0.0703125 58.1222V85.0901C0.0703125 88.4886 2.82452 91.2436 6.22201 91.2436H54.2006C57.5981 91.2436 60.3523 88.4886 60.3523 85.0901V58.1222C60.3523 54.7237 57.5981 51.9688 54.2006 51.9688Z" fill="#CBC7FF"/>
<path d="M19.5182 84.0777C17.8987 84.0777 16.3375 83.7048 14.8578 82.9706C13.3781 82.2364 12.1665 81.1642 11.2344 79.754L14.7064 76.0013C15.452 76.957 16.2559 77.6795 17.1298 78.169C17.9919 78.6585 18.8424 78.9032 19.6697 78.9032C20.3338 78.9032 20.8814 78.7284 21.3008 78.3905C21.7202 78.0525 21.9299 77.598 21.9299 77.0153C21.9299 76.4325 21.6387 75.8615 21.0678 75.3254C20.4969 74.7893 19.6231 74.1833 18.4347 73.5073C16.2676 72.2603 14.6598 71.0133 13.6228 69.778C12.5859 68.5426 12.0616 67.1324 12.0616 65.5591C12.0616 64.5452 12.2597 63.6245 12.6558 62.8087C13.0519 61.9813 13.5879 61.3053 14.2753 60.7809C14.9627 60.2564 15.7433 59.8485 16.6404 59.5572C17.5259 59.2775 18.4813 59.126 19.4716 59.126C20.9047 59.126 22.2911 59.4173 23.631 59.9884C24.9708 60.5711 26.0194 61.3636 26.7884 62.3892L23.4562 66.0253C22.4076 64.8715 21.1027 64.2888 19.5182 64.2888C19.0172 64.2888 18.5861 64.417 18.2133 64.6851C17.8405 64.9414 17.6657 65.3027 17.6657 65.7572C17.6657 66.2351 17.8987 66.6779 18.3531 67.0975C18.8191 67.5054 19.658 68.0648 20.8814 68.764C22.4193 69.6498 23.6426 70.5005 24.5514 71.293C25.4602 72.0855 26.1592 72.9596 26.6369 73.9269C27.1146 74.8825 27.3593 75.9431 27.3593 77.1201C27.3593 78.2156 27.1379 79.2063 26.7068 80.092C26.2757 80.9777 25.6932 81.7119 24.9592 82.283C24.2252 82.854 23.3863 83.2969 22.4542 83.5999C21.5222 83.9029 20.5435 84.0544 19.5182 84.0544V84.0777Z" fill="#7E73FF"/>
<path d="M30 83.6346V59.6035H39.3091C40.9752 59.6035 42.4898 59.9648 43.853 60.6757C45.2161 61.3866 46.2764 62.3889 47.057 63.6709C47.8376 64.9528 48.2221 66.4096 48.2221 68.0179C48.2221 69.3814 47.9192 70.6284 47.3017 71.7589C46.6842 72.8777 45.8336 73.8217 44.7384 74.5676C46.521 77.2947 48.0007 80.3248 49.1891 83.6462H43.4335C42.7228 81.2338 41.4878 78.7631 39.7518 76.2574C39.3907 76.2808 39.1227 76.2924 38.9479 76.2924H35.5109V83.6579H30V83.6346ZM35.5109 71.5142H38.9013C39.9849 71.5142 40.8587 71.1995 41.5461 70.5935C42.2335 69.9758 42.5714 69.125 42.5714 68.0295C42.5714 67.0156 42.2335 66.1998 41.5577 65.5588C40.882 64.9295 39.9965 64.6032 38.9013 64.6032H35.5109V71.5142Z" fill="#7E73FF"/>
<path d="M126.169 46.8809L102.678 80.3333L88.1172 67.4055" stroke="#7E73FF" stroke-width="7" stroke-linecap="round" stroke-linejoin="round"/>
</svg>
