<svg width="165" height="107" viewBox="0 0 165 107" fill="none" xmlns="http://www.w3.org/2000/svg">
<path d="M58.2575 0L26.5182 29.0787C24.0011 31.386 22.5659 34.6428 22.5659 38.0541L33.8375 106.975H11.8132C5.71925 106.975 0.773438 102.029 0.773438 95.9355V37.5573C0.773438 34.4661 2.07613 31.5075 4.35032 29.421L33.2966 2.90346C35.3279 1.03774 37.9885 0 40.7594 0H58.2685H58.2575Z" fill="#7D73FF"/>
<path d="M58.2586 0L26.155 29.4099C23.8698 31.4964 22.5781 34.4551 22.5781 37.5462V95.9245C22.5781 102.018 27.5239 106.964 33.6179 106.964H84.8203C90.9142 106.964 95.86 102.018 95.86 95.9245V37.7229C95.86 34.5324 94.4801 31.4854 92.0624 29.3878L58.2586 0Z" fill="#BEB9FF"/>
<path d="M95.6146 106.976H71.4817C65.7741 106.976 61.1484 102.35 61.1484 96.6424V36.6965C61.1484 30.9889 65.7741 26.3633 71.4817 26.3633H94.4554L95.6146 87.2475V106.976Z" fill="#7D73FF"/>
<path d="M95.6173 106.976L120.39 87.2478H157.318C161.469 87.2478 164.837 83.8807 164.837 79.7298V33.8706C164.837 29.7197 161.469 26.3525 157.318 26.3525H84.4009C80.2499 26.3525 76.8828 29.7197 76.8828 33.8706V79.7187C76.8828 83.8697 80.2499 87.2368 84.4009 87.2368H95.6173V106.965V106.976Z" fill="#D8D5FF"/>
<path d="M148.664 38.0098H92.0967C90.3347 38.0098 88.9062 39.4382 88.9062 41.2003V41.2113C88.9062 42.9734 90.3347 44.4018 92.0967 44.4018H148.664C150.427 44.4018 151.855 42.9734 151.855 41.2113V41.2003C151.855 39.4382 150.427 38.0098 148.664 38.0098Z" fill="#7D73FF"/>
<path d="M148.664 52.6602H92.0967C90.3347 52.6602 88.9062 54.0886 88.9062 55.8506V55.8617C88.9062 57.6237 90.3347 59.0522 92.0967 59.0522H148.664C150.427 59.0522 151.855 57.6237 151.855 55.8617V55.8506C151.855 54.0886 150.427 52.6602 148.664 52.6602Z" fill="#7D73FF"/>
<path d="M118.979 66.5928H92.0967C90.3347 66.5928 88.9062 68.0212 88.9062 69.7833V69.7943C88.9062 71.5564 90.3347 72.9848 92.0967 72.9848H118.979C120.741 72.9848 122.169 71.5564 122.169 69.7943V69.7833C122.169 68.0212 120.741 66.5928 118.979 66.5928Z" fill="#7D73FF"/>
</svg>
