<svg width="123" height="105" viewBox="0 0 123 105" fill="none" xmlns="http://www.w3.org/2000/svg">
<path d="M80.5532 47.8992C79.727 47.8992 61.5021 9.03906 61.5021 9.03906C61.5021 9.03906 43.2772 47.8992 42.4511 47.8992C41.625 47.8992 10.7578 25.2245 10.7578 25.2245L23.1873 94.6878H99.817L112.246 25.2245C112.246 25.2245 81.3918 47.8865 80.5532 47.8865V47.8992Z" fill="#B1ABFF"/>
<path d="M10.7576 35.4121C16.3363 35.4121 20.8589 30.8506 20.8589 25.2236C20.8589 19.5967 16.3363 15.0352 10.7576 15.0352C5.17876 15.0352 0.65625 19.5967 0.65625 25.2236C0.65625 30.8506 5.17876 35.4121 10.7576 35.4121Z" fill="#B1ABFF"/>
<path d="M61.5076 20.5898C67.0863 20.5898 71.6089 16.0283 71.6089 10.4014C71.6089 4.77442 67.0863 0.212891 61.5076 0.212891C55.9288 0.212891 51.4062 4.77442 51.4062 10.4014C51.4062 16.0283 55.9288 20.5898 61.5076 20.5898Z" fill="#B1ABFF"/>
<path d="M112.234 35.4121C117.813 35.4121 122.335 30.8506 122.335 25.2236C122.335 19.5967 117.813 15.0352 112.234 15.0352C106.655 15.0352 102.133 19.5967 102.133 25.2236C102.133 30.8506 106.655 35.4121 112.234 35.4121Z" fill="#B1ABFF"/>
<path d="M61.5023 104.497C82.6631 104.497 99.8172 100.664 99.8172 95.9368C99.8172 91.2093 82.6631 87.377 61.5023 87.377C40.3416 87.377 23.1875 91.2093 23.1875 95.9368C23.1875 100.664 40.3416 104.497 61.5023 104.497Z" fill="#7D73FF"/>
</svg>
