<svg width="99" height="112" viewBox="0 0 99 112" fill="none" xmlns="http://www.w3.org/2000/svg">
<path d="M59.7538 0.513672L27.0417 30.6864C24.4474 33.0805 22.9683 36.4598 22.9683 39.9994L34.5854 111.514H11.886C5.60522 111.514 0.507812 106.382 0.507812 100.059V39.4839C0.507812 36.2765 1.85043 33.2066 4.19433 31.0415L34.0278 3.52637C36.1214 1.59045 38.8636 0.513672 41.7195 0.513672H59.7652H59.7538Z" fill="#FF642D"/>
<path d="M59.7507 0.513672L26.6631 31.0301C24.3078 33.1951 22.9766 36.2651 22.9766 39.4725V100.047C22.9766 106.37 28.074 111.502 34.3547 111.502H87.1266C93.4073 111.502 98.5047 106.37 98.5047 100.047V39.6558C98.5047 36.3452 97.0825 33.1836 94.5906 31.0072L59.7507 0.513672Z" fill="#FFC1AB"/>
<path d="M60.7459 91.2497C74.9477 91.2497 86.4605 79.659 86.4605 65.3612C86.4605 51.0634 74.9477 39.4727 60.7459 39.4727C46.5441 39.4727 35.0312 51.0634 35.0312 65.3612C35.0312 79.659 46.5441 91.2497 60.7459 91.2497Z" fill="#FF6C37"/>
<mask id="mask0_531_687" style="mask-type:luminance" maskUnits="userSpaceOnUse" x="35" y="39" width="52" height="53">
<path d="M60.7459 91.2497C74.9477 91.2497 86.4605 79.659 86.4605 65.3612C86.4605 51.0634 74.9477 39.4727 60.7459 39.4727C46.5441 39.4727 35.0312 51.0634 35.0312 65.3612C35.0312 79.659 46.5441 91.2497 60.7459 91.2497Z" fill="white"/>
</mask>
<g mask="url(#mask0_531_687)">
<path d="M60.7475 70.9976C67.352 70.9976 72.7059 65.6074 72.7059 58.9583C72.7059 52.3091 67.352 46.9189 60.7475 46.9189C54.143 46.9189 48.7891 52.3091 48.7891 58.9583C48.7891 65.6074 54.143 70.9976 60.7475 70.9976Z" fill="white"/>
<path d="M60.7485 70.9863C49.12 70.9863 39.6875 80.4826 39.6875 92.1897H81.8094C81.8094 80.4826 72.3769 70.9863 60.7485 70.9863Z" fill="white"/>
</g>
</svg>
