<svg width="141" height="107" viewBox="0 0 141 107" fill="none" xmlns="http://www.w3.org/2000/svg">
<path d="M102.754 0.733398L71.2341 29.6195C68.7345 31.9115 67.3092 35.1467 67.3092 38.5354L78.5029 107H56.6198C50.5679 107 45.6562 102.087 45.6562 96.0334V38.0419C45.6562 34.9712 46.9499 32.0321 49.2084 29.9595L77.9657 3.61762C79.983 1.76426 82.6252 0.733398 85.3771 0.733398H102.765H102.754Z" fill="#FF936C"/>
<path d="M102.754 0.733398L70.8725 29.9485C68.603 32.0212 67.3203 34.9602 67.3203 38.0309V96.0224C67.3203 102.076 72.232 106.989 78.2838 106.989H129.133C135.184 106.989 140.096 102.076 140.096 96.0224V38.2064C140.096 35.037 138.726 32.0102 136.325 29.9266L102.754 0.733398Z" fill="#FFC1AB"/>
<path d="M63.3357 84.3732V49.2909C63.3357 45.5673 60.3172 42.5488 56.5936 42.5488C52.8701 42.5488 49.8516 45.5673 49.8516 49.2909V84.3732C49.8516 88.0967 52.8701 91.1152 56.5936 91.1152C60.3172 91.1152 63.3357 88.0967 63.3357 84.3732Z" fill="#FF642D"/>
<path d="M51.4443 48.3535H6.29655C3.09952 48.3535 0.507812 50.946 0.507812 54.1439V79.5207C0.507812 82.7186 3.09952 85.311 6.29655 85.311H51.4443C54.6413 85.311 57.233 82.7186 57.233 79.5207V54.1439C57.233 50.946 54.6413 48.3535 51.4443 48.3535Z" fill="#FFB196"/>
<path d="M18.8029 78.5665C17.2789 78.5665 15.8098 78.2155 14.4175 77.5246C13.0251 76.8337 11.8849 75.8248 11.0078 74.4978L14.2749 70.9666C14.9766 71.8659 15.7331 72.5458 16.5554 73.0064C17.3667 73.467 18.167 73.6973 18.9454 73.6973C19.5703 73.6973 20.0856 73.5328 20.4803 73.2147C20.875 72.8967 21.0723 72.469 21.0723 71.9207C21.0723 71.3724 20.7982 70.835 20.261 70.3305C19.7238 69.8261 18.9015 69.2558 17.7833 68.6197C15.7441 67.4463 14.2311 66.2729 13.2553 65.1104C12.2796 63.9479 11.7862 62.621 11.7862 61.1405C11.7862 60.1864 11.9726 59.32 12.3454 58.5524C12.7181 57.7737 13.2224 57.1377 13.8693 56.6442C14.5161 56.1507 15.2507 55.7668 16.0949 55.4927C16.9281 55.2295 17.8271 55.0869 18.759 55.0869C20.1075 55.0869 21.4122 55.3611 22.673 55.8984C23.9338 56.4468 24.9205 57.1925 25.6441 58.1576L22.5085 61.5792C21.5218 60.4935 20.2939 59.9451 18.8029 59.9451C18.3314 59.9451 17.9258 60.0658 17.575 60.318C17.2241 60.5593 17.0597 60.8992 17.0597 61.3269C17.0597 61.7766 17.2789 62.1933 17.7065 62.5881C18.1451 62.9719 18.9344 63.4983 20.0856 64.1563C21.5328 64.9898 22.684 65.7903 23.5391 66.5361C24.3943 67.2818 25.0521 68.1043 25.5016 69.0145C25.9511 69.9138 26.1813 70.9118 26.1813 72.0194C26.1813 73.0502 25.973 73.9824 25.5674 74.8159C25.1617 75.6493 24.6135 76.3402 23.9228 76.8776C23.2321 77.415 22.4428 77.8317 21.5657 78.1168C20.6886 78.402 19.7677 78.5445 18.8029 78.5445V78.5665Z" fill="#FF642D"/>
<path d="M28.6641 78.1493V55.5361H37.4239C38.9917 55.5361 40.417 55.8761 41.6997 56.5451C42.9824 57.214 43.9801 58.1572 44.7147 59.3635C45.4492 60.5698 45.811 61.9406 45.811 63.454C45.811 64.7371 45.526 65.9106 44.9449 66.9743C44.3638 68.0271 43.5635 68.9154 42.5329 69.6173C44.2103 72.1835 45.6027 75.0348 46.721 78.1603H41.305C40.6362 75.8902 39.4741 73.5653 37.8405 71.2074C37.5007 71.2294 37.2485 71.2403 37.084 71.2403H33.8498V78.1712H28.6641V78.1493ZM33.8498 66.744H37.0402C38.0598 66.744 38.8821 66.4479 39.5289 65.8777C40.1758 65.2964 40.4937 64.4959 40.4937 63.465C40.4937 62.5109 40.1758 61.7432 39.5399 61.1401C38.904 60.5479 38.0708 60.2408 37.0402 60.2408H33.8498V66.744Z" fill="#FF642D"/>
<path d="M119.166 44.7822L97.0612 76.2609L83.3594 64.0959" stroke="#FF7442" stroke-width="7" stroke-linecap="round" stroke-linejoin="round"/>
</svg>
