<svg width="162" height="140" viewBox="0 0 162 140" fill="none" xmlns="http://www.w3.org/2000/svg">
<path d="M63.6556 0.560547C30.2548 0.560547 2.00015 26.5863 0.705417 59.9707C0.672639 60.8229 0.65625 61.6751 0.65625 62.5274C0.65625 63.3796 0.672639 64.2318 0.705417 65.0841C2.00015 98.4685 30.2548 124.494 63.6556 124.494H84.0107V0.560547H63.6556Z" fill="#7E73FF"/>
<path d="M84.0095 124.494C118.369 124.494 146.222 96.7507 146.222 62.5274C146.222 28.304 118.369 0.560547 84.0095 0.560547C49.6504 0.560547 21.7969 28.304 21.7969 62.5274C21.7969 96.7507 49.6504 124.494 84.0095 124.494Z" fill="#A59DFF"/>
<path d="M84.005 112.742C111.738 112.742 134.221 90.2599 134.221 62.5265C134.221 34.793 111.738 12.3105 84.005 12.3105C56.2715 12.3105 33.7891 34.793 33.7891 62.5265C33.7891 90.2599 56.2715 112.742 84.005 112.742Z" fill="white"/>
<path d="M56.0391 57.8253L75.755 38.1094V86.9322" stroke="#7E73FF" stroke-width="7" stroke-linecap="round" stroke-linejoin="round"/>
<path d="M111.989 67.2326L92.2891 86.9322V38.1094" stroke="#7E73FF" stroke-width="7" stroke-linecap="round" stroke-linejoin="round"/>
<path d="M132.491 139.866C148.484 139.866 161.45 126.9 161.45 110.907C161.45 94.9128 148.484 81.9473 132.491 81.9473C116.497 81.9473 103.531 94.9128 103.531 110.907C103.531 126.9 116.497 139.866 132.491 139.866Z" fill="#7E73FF"/>
<path d="M144.703 100.469L127.953 124.348L117.562 115.121" stroke="white" stroke-width="5" stroke-linecap="round" stroke-linejoin="round"/>
</svg>
