<svg width="153" height="125" viewBox="0 0 153 125" fill="none" xmlns="http://www.w3.org/2000/svg">
<path d="M88.0741 0.310547C81.7105 0.310547 76.5469 5.4742 76.5469 11.8378V110.19C76.5469 103.826 81.7105 96.9234 88.0741 96.9234H144.214V0.310547H88.0741Z" fill="#BEB9FF"/>
<path d="M144.214 0.310547V96.9234H88.0741C81.7105 96.9234 76.5469 103.826 76.5469 110.19H152.788V11.8378L144.214 0.310547Z" fill="#7E73FF"/>
<path d="M65.0302 0.310547C71.3937 0.310547 76.5574 5.4742 76.5574 11.8378V110.19C76.5574 103.826 71.3937 96.9234 65.0302 96.9234H8.89062V11.8378V0.310547H65.0302Z" fill="#E5E3FF"/>
<path d="M65.0345 96.9234H8.89494V0.310547L0.320312 11.8378V110.19H8.89494H76.5617C76.5617 103.826 71.398 96.9234 65.0345 96.9234Z" fill="#7E73FF"/>
<path d="M29.3487 67.0865C29.3487 64.2719 27.0671 61.9902 24.2525 61.9902C21.4379 61.9902 19.1562 64.2719 19.1562 67.0865V81.7146C19.1562 84.5291 21.4379 86.8108 24.2525 86.8108C27.0671 86.8108 29.3487 84.5291 29.3487 81.7146V67.0865Z" fill="#7E73FF"/>
<path d="M47.5206 53.566C47.5206 50.7514 45.2389 48.4697 42.4244 48.4697C39.6098 48.4697 37.3281 50.7514 37.3281 53.566V81.7166C37.3281 84.5312 39.6098 86.8129 42.4244 86.8129C45.2389 86.8129 47.5206 84.5312 47.5206 81.7166V53.566Z" fill="#7E73FF"/>
<path d="M64.1534 16.5699C64.1534 13.7553 61.8718 11.4736 59.0572 11.4736C56.2426 11.4736 53.9609 13.7553 53.9609 16.5699V81.7155C53.9609 84.53 56.2426 86.8117 59.0572 86.8117C61.8718 86.8117 64.1534 84.53 64.1534 81.7155V16.5699Z" fill="#7E73FF"/>
<path d="M113.608 22.6367H91.8205C89.758 22.6367 88.0859 24.3087 88.0859 26.3713V28.1914C88.0859 30.2539 89.758 31.9259 91.8205 31.9259H113.608C115.67 31.9259 117.342 30.2539 117.342 28.1914V26.3713C117.342 24.3087 115.67 22.6367 113.608 22.6367Z" fill="#7E73FF"/>
<path d="M128.667 41.2148H91.8205C89.758 41.2148 88.0859 42.8869 88.0859 44.9494V46.7695C88.0859 48.832 89.758 50.504 91.8205 50.504H128.667C130.73 50.504 132.402 48.832 132.402 46.7695V44.9494C132.402 42.8869 130.73 41.2148 128.667 41.2148Z" fill="#7E73FF"/>
<path d="M128.667 59.7939H91.8205C89.758 59.7939 88.0859 61.466 88.0859 63.5285V65.3486C88.0859 67.4111 89.758 69.0831 91.8205 69.0831H128.667C130.73 69.0831 132.402 67.4111 132.402 65.3486V63.5285C132.402 61.466 130.73 59.7939 128.667 59.7939Z" fill="#7E73FF"/>
<path d="M60.7734 110.189H92.5643C92.5643 118.252 86.0254 124.791 77.9631 124.791H75.3746C67.3123 124.791 60.7734 118.252 60.7734 110.189Z" fill="#7E73FF"/>
</svg>
