<svg width="167" height="117" viewBox="0 0 167 117" fill="none" xmlns="http://www.w3.org/2000/svg">
<path d="M50.04 49.5674C50.04 52.8174 47.1 55.7474 42.36 57.8274C37.86 59.8074 31.75 61.0274 25.02 61.0274C18.29 61.0274 12.18 59.8074 7.68 57.8274C2.94 55.7474 0 52.8174 0 49.5674C0 43.2374 11.2 38.1074 25.02 38.1074C38.84 38.1074 50.04 43.2374 50.04 49.5674Z" fill="#FFC1AB"/>
<path d="M50.04 49.5674V66.0774C50.04 69.3274 47.1 72.2574 42.36 74.3374C37.86 76.3174 31.75 77.5374 25.02 77.5374C18.29 77.5374 12.18 76.3174 7.68 74.3374C2.94 72.2574 0 69.3274 0 66.0774V49.5674C0 52.8174 2.94 55.7474 7.68 57.8274C12.18 59.8074 18.29 61.0274 25.02 61.0274C31.75 61.0274 37.86 59.8074 42.36 57.8274C47.1 55.7474 50.04 52.8174 50.04 49.5674Z" fill="#FF936C"/>
<path d="M50.04 68.0771V84.5872C50.04 87.8372 47.1 90.7671 42.36 92.8471C37.86 94.8271 31.75 96.0471 25.02 96.0471C18.29 96.0471 12.18 94.8271 7.68 92.8471C2.94 90.7671 0 87.8372 0 84.5872V68.0771C0 71.3271 2.94 74.2572 7.68 76.3372C12.18 78.3172 18.29 79.5371 25.02 79.5371C31.75 79.5371 37.86 78.3172 42.36 76.3372C47.1 74.2572 50.04 71.3271 50.04 68.0771Z" fill="#FF8357"/>
<path d="M50.04 86.5879V103.098C50.04 106.348 47.1 109.278 42.36 111.358C37.86 113.338 31.75 114.558 25.02 114.558C18.29 114.558 12.18 113.338 7.68 111.358C2.94 109.278 0 106.348 0 103.098V86.5879C0 89.8379 2.94 92.7679 7.68 94.8479C12.18 96.8279 18.29 98.0479 25.02 98.0479C31.75 98.0479 37.86 96.8279 42.36 94.8479C47.1 92.7679 50.04 89.8379 50.04 86.5879Z" fill="#FF936C"/>
<path d="M104.048 11.7178C104.048 14.9678 101.108 17.8978 96.3678 19.9778C91.8678 21.9578 85.7578 23.1778 79.0278 23.1778C72.2978 23.1778 66.1878 21.9578 61.6878 19.9778C56.9478 17.8978 54.0078 14.9678 54.0078 11.7178C54.0078 5.38781 65.2078 0.257812 79.0278 0.257812C92.8478 0.257812 104.048 5.38781 104.048 11.7178Z" fill="#FFC1AB"/>
<path d="M104.048 11.7178V28.2278C104.048 31.4778 101.108 34.4078 96.3678 36.4878C91.8678 38.4678 85.7578 39.6878 79.0278 39.6878C72.2978 39.6878 66.1878 38.4678 61.6878 36.4878C56.9478 34.4078 54.0078 31.4778 54.0078 28.2278V11.7178C54.0078 14.9678 56.9478 17.8978 61.6878 19.9778C66.1878 21.9578 72.2978 23.1778 79.0278 23.1778C85.7578 23.1778 91.8678 21.9578 96.3678 19.9778C101.108 17.8978 104.048 14.9678 104.048 11.7178Z" fill="#FF936C"/>
<path d="M104.048 30.2275V46.7375C104.048 49.9875 101.108 52.9175 96.3678 54.9975C91.8678 56.9775 85.7578 58.1975 79.0278 58.1975C72.2978 58.1975 66.1878 56.9775 61.6878 54.9975C56.9478 52.9175 54.0078 49.9875 54.0078 46.7375V30.2275C54.0078 33.4775 56.9478 36.4075 61.6878 38.4875C66.1878 40.4675 72.2978 41.6875 79.0278 41.6875C85.7578 41.6875 91.8678 40.4675 96.3678 38.4875C101.108 36.4075 104.048 33.4775 104.048 30.2275Z" fill="#FF8357"/>
<path d="M104.048 48.7383V65.2483C104.048 68.4983 101.108 71.4283 96.3678 73.5083C91.8678 75.4883 85.7578 76.7083 79.0278 76.7083C72.2978 76.7083 66.1878 75.4883 61.6878 73.5083C56.9478 71.4283 54.0078 68.4983 54.0078 65.2483V48.7383C54.0078 51.9883 56.9478 54.9183 61.6878 56.9983C66.1878 58.9783 72.2978 60.1983 79.0278 60.1983C85.7578 60.1983 91.8678 58.9783 96.3678 56.9983C101.108 54.9183 104.048 51.9883 104.048 48.7383Z" fill="#FF936C"/>
<path d="M104.048 67.248V83.758C104.048 87.008 101.108 89.9381 96.3678 92.0181C91.8778 93.9981 85.7578 95.218 79.0278 95.218C72.2978 95.218 66.1878 93.9981 61.6878 92.0181C56.9478 89.9381 54.0078 87.008 54.0078 83.758V67.248C54.0078 70.498 56.9478 73.428 61.6878 75.508C66.1878 77.488 72.2978 78.708 79.0278 78.708C85.7578 78.708 91.8678 77.488 96.3678 75.508C101.108 73.428 104.048 70.498 104.048 67.248Z" fill="#FF8357"/>
<path d="M104.048 85.7578V102.268C104.048 108.598 92.8478 113.728 79.0278 113.728C65.2078 113.728 54.0078 108.598 54.0078 102.268V85.7578C54.0078 89.0078 56.9478 91.9378 61.6878 94.0178C66.1878 95.9978 72.2978 97.2178 79.0278 97.2178C85.7578 97.2178 91.8778 95.9978 96.3678 94.0178C101.108 91.9378 104.048 89.0078 104.048 85.7578Z" fill="#FF936C"/>
<path d="M126.256 116.928C148.679 116.928 166.856 98.7503 166.856 76.3275C166.856 53.9048 148.679 35.7275 126.256 35.7275C103.833 35.7275 85.6562 53.9048 85.6562 76.3275C85.6562 98.7503 103.833 116.928 126.256 116.928Z" fill="#FF642D"/>
<path d="M126.258 58.0273V94.6273" stroke="white" stroke-width="10" stroke-miterlimit="10" stroke-linecap="round"/>
<path d="M144.561 76.3271H107.961" stroke="white" stroke-width="10" stroke-miterlimit="10" stroke-linecap="round"/>
</svg>
