<svg width="174" height="137" viewBox="0 0 174 137" fill="none" xmlns="http://www.w3.org/2000/svg">
<path d="M87.3244 0L57.4609 45.452L87.3244 137L118.458 45.452L87.3244 0Z" fill="#988FFF"/>
<path d="M131.626 0L118.461 45.452H174.001L131.626 0Z" fill="#7E73FF"/>
<path d="M87.3281 0H131.627L118.462 45.452L87.3281 0Z" fill="#988FFF"/>
<path d="M41.4219 0L57.4664 45.452L87.3298 0H41.4219Z" fill="#7E73FF"/>
<path d="M0 45.452H57.4635L41.419 0L0 45.452Z" fill="#CBC7FF"/>
<path d="M87.3269 137L0 45.4521H57.4635L87.3269 137Z" fill="#7E73FF"/>
<path d="M118.462 45.4521L87.3281 137L174.001 45.4521H118.462Z" fill="#BEB9FF"/>
<path d="M118.458 45.452H57.4609L87.3244 0L118.458 45.452Z" fill="#D8D5FF"/>
</svg>
