<svg width="143" height="143" viewBox="0 0 143 143" fill="none" xmlns="http://www.w3.org/2000/svg">
<path d="M83.0855 0.644531H17.0145C7.73845 0.644531 0.21875 8.17245 0.21875 17.4586V98.574C0.21875 107.86 7.73845 115.388 17.0145 115.388H83.0855C92.3615 115.388 99.8812 107.86 99.8812 98.574V17.4586C99.8812 8.17245 92.3615 0.644531 83.0855 0.644531Z" fill="#FF642D"/>
<path d="M97.8511 7.53906H31.7801C22.5041 7.53906 14.9844 15.067 14.9844 24.3531V105.469C14.9844 114.755 22.5041 122.283 31.7801 122.283H97.8511C107.127 122.283 114.647 114.755 114.647 105.469V24.3531C114.647 15.067 107.127 7.53906 97.8511 7.53906Z" fill="#FF936C"/>
<path d="M44.0857 58.6514H31.0781V90.871H44.0857V58.6514Z" fill="white"/>
<path d="M70.117 42.5371H57.1094V90.8616H70.117V42.5371Z" fill="white"/>
<path d="M96.1404 26.4316H83.1328V90.8708H96.1404V26.4316Z" fill="white"/>
<path d="M140.607 112.749L135.668 109.883L135.589 103.756L140.46 100.762C142.487 99.5107 143.116 96.861 141.877 94.8319L134.468 82.7655C133.218 80.7364 130.571 80.106 128.544 81.3471L125.101 83.4649L119.679 80.4311V76.3827C119.679 73.999 117.751 72.0684 115.369 72.0684H101.23C98.8492 72.0684 96.9207 73.999 96.9207 76.3827V81.2388C94.5396 82.6079 93.9492 82.9527 91.5779 84.3218L87.3766 81.8889C85.3201 80.697 82.6832 81.3964 81.4926 83.4649L74.4083 95.7184C73.2178 97.7771 73.9164 100.417 75.9826 101.609L80.922 104.475L81.0007 110.602L76.1302 113.596C74.1033 114.847 73.4736 117.497 74.7133 119.526L82.1224 131.592C83.372 133.621 86.0187 134.252 88.0456 133.011L91.4894 130.893L96.9109 133.927V137.975C96.9109 140.359 98.8394 142.29 101.22 142.29H115.36C117.741 142.29 119.669 140.359 119.669 137.975V133.119C122.05 131.75 122.641 131.405 125.012 130.036L129.213 132.469C131.27 133.661 133.907 132.962 135.097 130.893L142.182 118.64C143.372 116.581 142.674 113.941 140.607 112.749Z" fill="#FF642D"/>
<path d="M108.286 121.418C116.133 121.418 122.494 115.05 122.494 107.194C122.494 99.3388 116.133 92.9707 108.286 92.9707C100.439 92.9707 94.0781 99.3388 94.0781 107.194C94.0781 115.05 100.439 121.418 108.286 121.418Z" fill="white"/>
</svg>
