<svg width="145" height="152" viewBox="0 0 145 152" fill="none" xmlns="http://www.w3.org/2000/svg">
<path d="M6.65625 84.7617H138.898V135.897C138.898 144.49 131.958 151.462 123.406 151.462H22.1481C13.5961 151.462 6.65625 144.49 6.65625 135.897V84.7617Z" fill="#FF936C"/>
<path d="M92.384 115.982L80.101 114.27C79.7479 114.224 79.4562 114.008 79.3026 113.684L73.7292 102.346C73.3454 101.559 72.2246 101.559 71.8407 102.346L66.3748 113.483C66.2213 113.792 65.9295 114.008 65.5918 114.054L53.186 115.936C52.3262 116.059 51.9884 117.124 52.6025 117.741L61.3848 126.333C61.6305 126.579 61.7533 126.934 61.6919 127.289L59.3889 139.799C59.2353 140.663 60.1258 141.326 60.9089 140.925L72.286 135.064C72.593 134.909 72.9615 134.909 73.2686 135.064L83.9701 140.864C84.7378 141.28 85.6437 140.632 85.5055 139.768L83.5863 127.567C83.5402 127.227 83.6477 126.888 83.8934 126.641L92.9828 117.741C93.6123 117.124 93.2591 116.059 92.3993 115.936L92.384 115.982Z" fill="white"/>
<path d="M0.875 72.2793H144.693V85.6687C144.693 91.7772 139.765 96.7288 133.685 96.7288H11.8836C5.80354 96.7288 0.875 91.7772 0.875 85.6687V72.2793Z" fill="#FF7442"/>
<path d="M13.3472 48.0621L1.87796 67.9611C-0.962472 72.8819 2.56888 79.0367 8.21904 79.0367L137.328 79.268C143.009 79.268 146.556 73.0824 143.685 68.1616L131.939 48.0467C130.619 45.7946 128.208 44.4062 125.598 44.4062H19.7036C17.0781 44.4062 14.6676 45.81 13.3472 48.093V48.0621Z" fill="#FFC1AB"/>
<path d="M117.351 59.5078H27.3633C25.7776 59.5078 24.4922 60.7993 24.4922 62.3924C24.4922 63.9855 25.7776 65.277 27.3633 65.277H117.351C118.937 65.277 120.223 63.9855 120.223 62.3924C120.223 60.7993 118.937 59.5078 117.351 59.5078Z" fill="#FF642D"/>
<path d="M43.4609 59.5088L59.8741 0.96875L111.294 16.0858L97.8898 62.3934L43.4609 59.5088Z" fill="#FF642D"/>
</svg>
