<svg width="148" height="148" viewBox="0 0 148 148" fill="none" xmlns="http://www.w3.org/2000/svg">
<path d="M116.279 99.3057L136.173 79.4123L116.279 59.519V31.3855H88.1457L68.2639 11.4922L48.3705 31.3855H20.2371V59.519L0.34375 79.4123L20.2371 99.3057V127.428H48.3705L68.2639 147.321L88.1457 127.428H116.279V99.3057Z" fill="#7E73FF"/>
<path d="M116.826 98.7549L136.719 78.8615L116.826 58.9682V30.8348H88.6926L68.7993 10.9414L48.9059 30.8348H20.7725V58.9682L0.890625 78.8615L20.7725 98.7549V126.888H48.9059L68.7993 146.782L88.6926 126.888H116.826V98.7549Z" fill="#7E73FF"/>
<path d="M117.377 98.2033L137.258 78.31L117.377 58.4281V30.2947H89.2432L69.3498 10.4014L49.4565 30.2947H21.323V58.4281L1.42969 78.31L21.323 98.2033V126.337H49.4565L69.3498 146.23L89.2432 126.337H117.377V98.2033Z" fill="#7E73FF"/>
<path d="M117.92 97.6631L137.813 77.7697L117.92 57.8764V29.743H89.7864L69.893 9.84961L50.0111 29.743H21.8777V57.8764L1.98438 77.7697L21.8777 97.6631V125.796H50.0111L69.893 145.678L89.7864 125.796H117.92V97.6631Z" fill="#7E73FF"/>
<path d="M118.478 97.1106L138.372 77.2172L118.478 57.3239V29.1905H90.3447L70.4514 9.30859L50.558 29.1905H22.4246V57.3239L2.53125 77.2172L22.4246 97.1106V125.244H50.558L70.4514 145.137L90.3447 125.244H118.478V97.1106Z" fill="#7E73FF"/>
<path d="M119.021 96.5588L138.915 76.677L119.021 56.7836V28.6502H90.8994L71.0061 8.75684L51.1127 28.6502H22.9793V56.7836L3.08594 76.677L22.9793 96.5588V124.692H51.1127L71.0061 144.586L90.8994 124.692H119.021V96.5588Z" fill="#7E73FF"/>
<path d="M119.568 96.0186L139.462 76.1252L119.568 56.2318V28.0984H91.4348L71.5414 8.20508L51.6481 28.0984H23.5262V56.2318L3.63281 76.1252L23.5262 96.0186V124.152H51.6481L71.5414 144.045L91.4348 124.152H119.568V96.0186Z" fill="#7E73FF"/>
<path d="M120.119 95.468L140.012 75.5746L120.119 55.6813V27.5594H91.9854L72.092 7.66602L52.1986 27.5594H24.0652V55.6813L4.17188 75.5746L24.0652 95.468V123.601H52.1986L72.092 143.495L91.9854 123.601H120.119V95.468Z" fill="#7E73FF"/>
<path d="M120.662 94.9277L140.555 75.0344L120.662 55.141V27.0076H92.5285L72.6467 7.11426L52.7533 27.0076H24.6199V55.141L4.72656 75.0344L24.6199 94.9277V123.05H52.7533L72.6467 142.943L92.5285 123.05H120.662V94.9277Z" fill="#7E73FF"/>
<path d="M121.209 94.376L141.102 74.4826L121.209 54.5893V26.4559H93.0754L73.1821 6.5625L53.2887 26.4559H25.1553V54.5893L5.27344 74.4826L25.1553 94.376V122.509H53.2887L73.1821 142.403L93.0754 122.509H121.209V94.376Z" fill="#7E73FF"/>
<path d="M121.759 93.8244L141.641 73.9311L121.759 54.0492V25.9158H93.626L73.7326 6.02246L53.8393 25.9158H25.7059V54.0492L5.8125 73.9311L25.7059 93.8244V121.958H53.8393L73.7326 141.851L93.626 121.958H121.759V93.8244Z" fill="#7E73FF"/>
<path d="M122.295 93.2832L142.188 73.3898L122.295 53.4965V25.3631H94.1614L74.268 5.46973L54.3861 25.3631H26.2527V53.4965L6.35938 73.3898L26.2527 93.2832V121.417H54.3861L74.268 141.298L94.1614 121.417H122.295V93.2832Z" fill="#7E73FF"/>
<path d="M122.845 92.7327L142.739 72.8393L122.845 52.9459V24.8125H94.7119L74.8186 4.93066L54.9252 24.8125H26.7918V52.9459L6.89844 72.8393L26.7918 92.7327V120.866H54.9252L74.8186 140.759L94.7119 120.866H122.845V92.7327Z" fill="#7E73FF"/>
<path d="M123.389 92.1809L143.282 72.299L123.389 52.4057V24.2723H95.2666L75.3732 4.37891L55.4799 24.2723H27.3465V52.4057L7.45312 72.299L27.3465 92.1809V120.314H55.4799L75.3732 140.208L95.2666 120.314H123.389V92.1809Z" fill="#7E73FF"/>
<path d="M123.943 91.6406L143.837 71.7473L123.943 51.8539V23.7205H95.8098L75.9164 3.82715L56.0231 23.7205H27.9012V51.8539L8.00781 71.7473L27.9012 91.6406V119.774H56.0231L75.9164 139.667L95.8098 119.774H123.943V91.6406Z" fill="#7E73FF"/>
<path d="M124.502 91.0891L144.395 71.1957L124.502 51.3024V23.1805H96.3682L76.4748 3.28711L56.5815 23.1805H28.448V51.3024L8.55469 71.1957L28.448 91.0891V119.222H56.5815L76.4748 139.116L96.3682 119.222H124.502V91.0891Z" fill="#7E73FF"/>
<path d="M125.037 90.5488L144.93 70.6555L125.037 50.7621V22.6287H96.9035L77.0217 2.73535L57.1283 22.6287H28.9949V50.7621L9.10156 70.6555L28.9949 90.5488V118.671H57.1283L77.0217 138.564L96.9035 118.671H125.037V90.5488Z" fill="#7E73FF"/>
<path d="M125.592 89.9971L145.485 70.1037L125.592 50.2104V22.077H97.4582L77.5649 2.18359L57.6715 22.077H29.5381V50.2104L9.65625 70.1037L29.5381 89.9971V118.13H57.6715L77.5649 138.024L97.4582 118.13H125.592V89.9971Z" fill="#7E73FF"/>
<path d="M126.142 89.4455L146.024 69.5522L126.142 49.6703V21.5369H98.0088L78.1154 1.64355L58.2221 21.5369H30.0887V49.6703L10.1953 69.5522L30.0887 89.4455V117.579H58.2221L78.1154 137.472L98.0088 117.579H126.142V89.4455Z" fill="#7E73FF"/>
<path d="M126.678 88.9053L146.571 69.0119L126.678 49.1186V20.9852H98.5442L78.6508 1.0918L58.769 20.9852H30.6355V49.1186L10.7422 69.0119L30.6355 88.9053V117.039H58.769L78.6508 136.921L98.5442 117.039H126.678V88.9053Z" fill="#7E73FF"/>
<path d="M127.228 88.3537L147.122 68.4604L127.228 48.567V20.4451H99.0947L79.2014 0.551758L59.308 20.4451H31.1746V48.567L11.2812 68.4604L31.1746 88.3537V116.487H59.308L79.2014 136.38L99.0947 116.487H127.228V88.3537Z" fill="#7E73FF"/>
<path d="M127.764 87.8135L147.657 67.9201L127.764 48.0268V19.8934H99.6416L79.7482 0L59.8549 19.8934H31.7215V48.0268L11.8281 67.9201L31.7215 87.802V115.935H59.8549L79.7482 135.829L99.6416 115.935H127.764V87.8135Z" fill="#7E73FF"/>
<path d="M127.764 87.8135L147.657 67.9201L127.764 48.0268V19.8934H99.6416L79.7482 0L59.8549 19.8934H31.7215V48.0268L11.8281 67.9201L31.7215 87.802V115.935H59.8549L79.7482 135.829L99.6416 115.935H127.764V87.8135Z" fill="#B2ABFF"/>
<path d="M108.977 80.0225L121.09 67.921L108.977 55.808V38.6843H91.8538L79.7522 26.5713L67.6393 38.6843H50.5156V55.808L38.4141 67.921L50.5156 80.0225V97.1462H67.6393L79.7522 109.259L91.8538 97.1462H108.977V80.0225Z" fill="white"/>
<path d="M67.1435 82.619C65.2243 82.619 63.397 82.1823 61.6502 81.3204C59.9033 80.4585 58.4783 79.1828 57.375 77.5164L61.4663 73.0918C62.3397 74.2181 63.2936 75.0685 64.3164 75.6546C65.3392 76.2293 66.3391 76.5166 67.3044 76.5166C68.0859 76.5166 68.7295 76.3212 69.2352 75.919C69.7293 75.5167 69.9822 74.9766 69.9822 74.2985C69.9822 73.6205 69.6489 72.9424 68.9708 72.3103C68.2928 71.6783 67.2585 70.9657 65.8679 70.1613C63.3051 68.6902 61.4203 67.2307 60.1906 65.7597C58.961 64.3001 58.3519 62.6452 58.3519 60.795C58.3519 59.5997 58.5817 58.5195 59.0529 57.5426C59.5241 56.5772 60.1562 55.7728 60.9606 55.1522C61.7651 54.5316 62.696 54.0489 63.7418 53.7156C64.7876 53.3823 65.9024 53.21 67.0861 53.21C68.7755 53.21 70.4074 53.5547 71.9819 54.2328C73.5563 54.9108 74.7975 55.8647 75.7054 57.0714L71.775 61.3581C70.5453 59.9905 68.9938 59.3124 67.1321 59.3124C66.5459 59.3124 66.0288 59.4618 65.5921 59.7721C65.1554 60.0824 64.9485 60.5076 64.9485 61.0363C64.9485 61.5994 65.2243 62.1281 65.7645 62.6108C66.3046 63.0934 67.3044 63.7485 68.741 64.576C70.5568 65.6218 71.9933 66.6216 73.0736 67.5525C74.1539 68.4949 74.9699 69.5292 75.533 70.6554C76.0961 71.7817 76.3834 73.0344 76.3834 74.4135C76.3834 75.7006 76.1306 76.8728 75.6134 77.9186C75.0963 78.9645 74.4182 79.8264 73.5448 80.5044C72.6829 81.1825 71.6945 81.6996 70.5913 82.0559C69.488 82.4122 68.3388 82.5961 67.1321 82.5961L67.1435 82.619Z" fill="#7E73FF"/>
<path d="M79.5 82.0903V53.75H90.4867C92.4519 53.75 94.2448 54.1752 95.8422 55.0142C97.4396 55.8531 98.7038 57.0368 99.6232 58.5423C100.543 60.0593 101.002 61.7717 101.002 63.6679C101.002 65.2769 100.635 66.7479 99.9105 68.081C99.1865 69.4027 98.1752 70.5059 96.888 71.3908C98.9911 74.6087 100.738 78.1714 102.14 82.1018H95.348C94.5091 79.2517 93.061 76.3441 91.0039 73.379C90.5787 73.402 90.2684 73.4135 90.0615 73.4135H86.0047V82.0903H79.5115H79.5ZM85.9932 67.8052H89.9926C91.2682 67.8052 92.3025 67.4375 93.107 66.7134C93.9115 65.9894 94.3137 64.9781 94.3137 63.6909C94.3137 62.4957 93.9115 61.5304 93.1185 60.7834C92.314 60.0363 91.2797 59.6571 89.9926 59.6571H85.9932V67.8052Z" fill="#7E73FF"/>
</svg>
