<svg width="145" height="138" viewBox="0 0 145 138" fill="none" xmlns="http://www.w3.org/2000/svg">
<path d="M87.636 0L39.3402 43.9136C35.5125 47.3981 33.3285 52.3122 33.3285 57.4719L50.4854 137.638H16.9485C7.67207 137.638 0.140625 130.177 0.140625 120.963V56.7125C0.140625 52.0329 2.12199 47.5768 5.58938 44.4162L49.641 4.37796C52.7369 1.56356 56.7897 0 60.9889 0H87.636Z" fill="#7E73FF"/>
<path d="M87.6356 0L38.7769 44.4162C35.2982 47.5768 33.3281 52.0329 33.3281 56.7125V120.963C33.3281 130.166 40.8483 137.638 50.136 137.638H128.073C137.35 137.638 144.881 130.177 144.881 120.963V56.9693C144.881 52.1446 142.776 47.5545 139.106 44.3939L87.6356 0Z" fill="#B2ABFF"/>
<path d="M61.4674 89.3574H61.4561C56.5443 89.3574 52.5625 93.3076 52.5625 98.1804V106.914C52.5625 111.787 56.5443 115.737 61.4561 115.737H61.4674C66.3792 115.737 70.361 111.787 70.361 106.914V98.1804C70.361 93.3076 66.3792 89.3574 61.4674 89.3574Z" fill="white"/>
<path d="M89.4283 52.0332H89.4171C84.5053 52.0332 80.5234 55.9834 80.5234 60.8561V106.914C80.5234 111.787 84.5053 115.737 89.4171 115.737H89.4283C94.3401 115.737 98.322 111.787 98.322 106.914V60.8561C98.322 55.9834 94.3401 52.0332 89.4283 52.0332Z" fill="white"/>
<path d="M116.756 68.998H116.745C111.833 68.998 107.852 72.9482 107.852 77.821V106.914C107.852 111.787 111.833 115.737 116.745 115.737H116.756C121.668 115.737 125.65 111.787 125.65 106.914V77.821C125.65 72.9482 121.668 68.998 116.756 68.998Z" fill="white"/>
</svg>
