<svg width="129" height="127" viewBox="0 0 129 127" fill="none" xmlns="http://www.w3.org/2000/svg">
<path d="M125.781 116.888L115.326 125.631C112.726 127.209 109.394 126.817 107.225 124.68L94.1406 111.801L105.593 102.166L125.791 116.898L125.781 116.888Z" fill="#7D73FF"/>
<path d="M67.7656 58.8242L120.533 111.752" stroke="#A49DFF" stroke-width="15" stroke-linecap="round" stroke-linejoin="round"/>
<path d="M59.7608 125.739C92.2222 125.739 118.537 99.3432 118.537 66.7829C118.537 34.2225 92.2222 7.82715 59.7608 7.82715C27.2995 7.82715 0.984375 34.2225 0.984375 66.7829C0.984375 99.3432 27.2995 125.739 59.7608 125.739Z" fill="#7D73FF"/>
<path d="M67.7687 118.505C100.23 118.505 126.545 92.1098 126.545 59.5495C126.545 26.9891 100.23 0.59375 67.7687 0.59375C35.3073 0.59375 8.99219 26.9891 8.99219 59.5495C8.99219 92.1098 35.3073 118.505 67.7687 118.505Z" fill="#A49DFF"/>
<path d="M67.7677 107.401C94.1145 107.401 115.473 85.9771 115.473 59.5499C115.473 33.1227 94.1145 11.6992 67.7677 11.6992C41.4208 11.6992 20.0625 33.1227 20.0625 59.5499C20.0625 85.9771 41.4208 107.401 67.7677 107.401Z" fill="white"/>
<path d="M52.5431 77.8092C50.0122 77.8092 47.5986 77.2407 45.3023 76.094C42.9962 74.9472 41.12 73.2711 39.6641 71.0658L45.0678 65.2046C46.2306 66.6944 47.4814 67.8215 48.8299 68.5861C50.1784 69.3506 51.4975 69.7328 52.7776 69.7328C53.8134 69.7328 54.6635 69.4682 55.3182 68.9389C55.9729 68.4096 56.3052 67.6941 56.3052 66.7924C56.3052 65.8907 55.8557 64.9987 54.9665 64.1656C54.0772 63.3325 52.7092 62.3817 50.8819 61.3232C47.5107 59.3825 45.0092 57.4418 43.3871 55.5011C41.765 53.5702 40.9637 51.3747 40.9637 48.9243C40.9637 47.3463 41.2666 45.9153 41.8822 44.6313C42.4978 43.3473 43.3382 42.2888 44.4033 41.4654C45.4684 40.6421 46.6899 40.005 48.0774 39.564C49.465 39.1229 50.9308 38.8975 52.4942 38.8975C54.7222 38.8975 56.8817 39.3483 58.9533 40.2501C61.0347 41.1518 62.6665 42.4064 63.8587 44.004L58.6699 49.6791C57.038 47.8756 54.9958 46.9739 52.5431 46.9739C51.7614 46.9739 51.0871 47.1797 50.5204 47.5815C49.9536 47.9932 49.6605 48.5519 49.6605 49.2576C49.6605 50.0025 50.022 50.6984 50.7353 51.3453C51.4487 51.9922 52.7678 52.8547 54.6635 53.9525C57.0478 55.3443 58.9533 56.6577 60.38 57.8927C61.7968 59.1375 62.8815 60.4999 63.6241 61.9897C64.3668 63.4795 64.7381 65.1359 64.7381 66.959C64.7381 68.6645 64.3961 70.2033 63.7219 71.5951C63.0476 72.9869 62.1388 74.1239 60.9956 75.0158C59.8523 75.9077 58.5527 76.5938 57.0967 77.0741C55.6407 77.5544 54.1163 77.7896 52.5236 77.7896L52.5431 77.8092Z" fill="#7D73FF"/>
<path d="M68.8379 77.1029V39.6025H83.3195C85.9187 39.6025 88.2737 40.1612 90.3844 41.2688C92.4951 42.3764 94.1562 43.9348 95.3679 45.9441C96.5796 47.9436 97.1854 50.2077 97.1854 52.7267C97.1854 54.8634 96.7066 56.8041 95.749 58.5585C94.7914 60.313 93.4625 61.7734 91.7622 62.93C94.5276 67.1838 96.8434 71.9081 98.6903 77.0931H89.7297C88.6255 73.3293 86.7102 69.4774 83.9937 65.5568C83.4367 65.596 83.0263 65.6058 82.743 65.6058H77.3979V77.0931H68.8281L68.8379 77.1029ZM77.4076 58.1959H82.6746C84.3553 58.1959 85.7233 57.7156 86.7884 56.7551C87.8535 55.7945 88.3812 54.4615 88.3812 52.7561C88.3812 51.1781 87.8535 49.8941 86.7982 48.9041C85.7428 47.9142 84.365 47.4241 82.6746 47.4241H77.4076V58.2057V58.1959Z" fill="#7D73FF"/>
</svg>
