<svg width="145" height="177" viewBox="0 0 145 177" fill="none" xmlns="http://www.w3.org/2000/svg">
<path d="M14.031 108.813V99.7324L0.796875 92.3906V153.953C0.796875 159.131 3.6025 163.91 8.12855 166.419L22.5537 174.425L115.47 177.001C124.363 177.001 131.576 169.765 131.576 160.843V108.813H14.031Z" fill="#7E73FF"/>
<path d="M127.447 177.001H31.3811C21.7997 177.001 14.0312 169.207 14.0312 159.595V99.7324H144.797V159.595C144.797 169.207 137.029 177.001 127.447 177.001Z" fill="#CBC7FF"/>
<path d="M0.796875 92.3894L129.247 91.1016L144.797 99.7312H14.031L0.796875 92.3894Z" fill="white"/>
<path d="M78.4675 142.083C85.5645 142.083 91.3178 136.312 91.3178 129.192C91.3178 122.072 85.5645 116.301 78.4675 116.301C71.3705 116.301 65.6172 122.072 65.6172 129.192C65.6172 136.312 71.3705 142.083 78.4675 142.083Z" fill="#7E73FF"/>
<path d="M83.5334 139.334C83.5334 136.519 81.2611 134.236 78.4581 134.236C75.6551 134.236 73.3828 136.519 73.3828 139.334V155.332C73.3828 158.148 75.6551 160.431 78.4581 160.431C81.2611 160.431 83.5334 158.148 83.5334 155.332V139.334Z" fill="#7E73FF"/>
<path d="M121.859 93.6641L127.431 97.9656H25.9388L21.4922 94.1155L121.859 93.6641Z" fill="#7E73FF"/>
<mask id="mask0_531_760" style="mask-type:luminance" maskUnits="userSpaceOnUse" x="20" y="0" width="107" height="98">
<path d="M126.587 0H20.1719V97.966H126.587V0Z" fill="white"/>
</mask>
<g mask="url(#mask0_531_760)">
<path d="M75.0657 123.974C101.685 123.974 123.264 102.326 123.264 75.6219C123.264 48.9176 101.685 27.2695 75.0657 27.2695C48.4464 27.2695 26.8672 48.9176 26.8672 75.6219C26.8672 102.326 48.4464 123.974 75.0657 123.974Z" fill="#7E73FF"/>
<path d="M75.0653 114.867C96.6706 114.867 114.185 97.2961 114.185 75.6218C114.185 53.9475 96.6706 36.377 75.0653 36.377C53.4599 36.377 35.9453 53.9475 35.9453 75.6218C35.9453 97.2961 53.4599 114.867 75.0653 114.867Z" fill="white"/>
<path d="M62.5842 90.5976C60.5065 90.5976 58.5346 90.1329 56.6421 89.1903C54.7497 88.2476 53.2145 86.8802 52.0234 85.0746L56.4569 80.2686C57.4097 81.49 58.442 82.4193 59.5404 83.0433C60.6521 83.6673 61.724 83.9859 62.7695 83.9859C63.6165 83.9859 64.3179 83.7735 64.8605 83.3354C65.4031 82.8973 65.6678 82.3131 65.6678 81.5697C65.6678 80.8262 65.2972 80.096 64.5693 79.4189C63.8415 78.7418 62.7166 77.9585 61.2211 77.0955C58.4552 75.5024 56.4039 73.9092 55.0805 72.3293C53.7571 70.7362 53.0954 68.9439 53.0954 66.9391C53.0954 65.6381 53.3468 64.4697 53.8497 63.4209C54.3526 62.3721 55.0408 61.5091 55.9143 60.832C56.7877 60.1549 57.7935 59.6372 58.9316 59.2787C60.0698 58.9202 61.2741 58.7344 62.5445 58.7344C64.3708 58.7344 66.1442 59.1061 67.8382 59.8496C69.5454 60.5931 70.882 61.6153 71.8613 62.9297L67.5999 67.5897C66.2633 66.1027 64.5958 65.3725 62.571 65.3725C61.9358 65.3725 61.3799 65.5451 60.9167 65.877C60.4535 66.2089 60.2153 66.6736 60.2153 67.2578C60.2153 67.8685 60.5065 68.4394 61.102 68.9704C61.6843 69.5015 62.7695 70.2051 64.3311 71.1079C66.2898 72.2497 67.8514 73.3251 69.016 74.3473C70.1806 75.3696 71.0673 76.4848 71.676 77.7062C72.2848 78.9277 72.5892 80.2951 72.5892 81.7821C72.5892 83.1761 72.3113 84.4506 71.7554 85.5791C71.1996 86.7209 70.4585 87.6502 69.5189 88.3937C68.5793 89.1239 67.5205 89.6948 66.3295 90.0798C65.1384 90.4781 63.8944 90.6639 62.5842 90.6639V90.5976Z" fill="#7E73FF"/>
<path d="M75.9531 90.0136V59.2656H87.8373C89.968 59.2656 91.9002 59.717 93.6339 60.6331C95.3675 61.5492 96.7306 62.8237 97.7232 64.4699C98.7157 66.1162 99.2186 67.9749 99.2186 70.0327C99.2186 71.7852 98.8216 73.3784 98.0408 74.8122C97.26 76.246 96.1616 77.4409 94.772 78.3968C97.035 81.8885 98.9407 85.7519 100.449 90.0136H93.1045C92.1913 86.9202 90.6297 83.7737 88.4064 80.5476C87.9564 80.5741 87.6123 80.5874 87.3874 80.5874H83.0069V90.0003H75.9796L75.9531 90.0136ZM82.9804 74.5068H87.308C88.6843 74.5068 89.8092 74.1086 90.6826 73.3253C91.5561 72.5287 91.9928 71.44 91.9928 70.046C91.9928 68.7449 91.5561 67.6961 90.6959 66.8862C89.8357 66.0764 88.6975 65.6648 87.308 65.6648H82.9804V74.5068Z" fill="#7E73FF"/>
</g>
</svg>
