<svg width="198" height="136" viewBox="0 0 198 136" fill="none" xmlns="http://www.w3.org/2000/svg">
<path d="M127.697 71.2207L73.1583 107.287H37.4688L92.2342 71.2207H127.697Z" fill="#FFC1AB"/>
<path d="M140.332 100.737L84.7603 135.985L73.1562 107.287L127.695 71.2207L140.332 100.737Z" fill="#FF936C"/>
<path d="M29.9375 135.985H84.7596L73.1555 107.287H37.466L29.9375 135.985Z" fill="#FF642D"/>
<path d="M184.441 71.2207L129.916 107.287H94.2266L148.978 71.2207H184.441Z" fill="#FFC1AB"/>
<path d="M197.084 100.737L141.512 135.985L129.922 107.287L184.447 71.2207L197.084 100.737Z" fill="#FF936C"/>
<path d="M86.6875 135.985H141.51L129.92 107.287H94.2301L86.6875 135.985Z" fill="#FF642D"/>
<path d="M152.307 31.668L97.7677 67.7345H62.0781L116.829 31.668H152.307Z" fill="#FFC1AB"/>
<path d="M164.928 61.1847L109.37 96.4325L97.7656 67.7345L152.305 31.668L164.928 61.1847Z" fill="#FF936C"/>
<path d="M54.5469 96.4323H109.369L97.7649 67.7344H62.0754L54.5469 96.4323Z" fill="#FF642D"/>
<path d="M42.7301 57.9803L36.2063 72.9857L29.6826 57.9803C27.0646 51.9528 22.2956 47.0969 16.2955 44.3583L0.078125 36.9333L16.3238 29.5082C22.3239 26.7697 27.0788 21.9138 29.7109 15.8862L36.2205 0.880859L42.7442 15.8862C45.3622 21.9138 50.1312 26.7697 56.1314 29.5082L72.377 36.9333L56.1314 44.3583C50.1312 47.0969 45.3764 51.9528 42.7442 57.9803H42.7301Z" fill="#FF642D"/>
</svg>
