<svg width="170" height="123" viewBox="0 0 170 123" fill="none" xmlns="http://www.w3.org/2000/svg">
<path d="M53.9054 53.1814C53.9054 56.6454 50.7718 59.7684 45.7196 61.9853C40.9233 64.0957 34.411 65.396 27.2378 65.396C20.0647 65.396 13.5523 64.0957 8.75603 61.9853C3.70391 59.7684 0.570312 56.6454 0.570312 53.1814C0.570312 46.4346 12.5078 40.9668 27.2378 40.9668C41.9679 40.9668 53.9054 46.4346 53.9054 53.1814Z" fill="#FFD1C0"/>
<path d="M53.9054 53.1807V70.7778C53.9054 74.2418 50.7718 77.3648 45.7196 79.5817C40.9233 81.6921 34.411 82.9924 27.2378 82.9924C20.0647 82.9924 13.5523 81.6921 8.75603 79.5817C3.70391 77.3648 0.570312 74.2418 0.570312 70.7778V53.1807C0.570312 56.6447 3.70391 59.7676 8.75603 61.9846C13.5523 64.0949 20.0647 65.3953 27.2378 65.3953C34.411 65.3953 40.9233 64.0949 45.7196 61.9846C50.7718 59.7676 53.9054 56.6447 53.9054 53.1807Z" fill="#FF8357"/>
<path d="M53.9054 72.9102V90.5073C53.9054 93.9713 50.7718 97.0942 45.7196 99.3112C40.9233 101.422 34.411 102.722 27.2378 102.722C20.0647 102.722 13.5523 101.422 8.75603 99.3112C3.70391 97.0942 0.570312 93.9713 0.570312 90.5073V72.9102C0.570312 76.3742 3.70391 79.4971 8.75603 81.7141C13.5523 83.8244 20.0647 85.1248 27.2378 85.1248C34.411 85.1248 40.9233 83.8244 45.7196 81.7141C50.7718 79.4971 53.9054 76.3742 53.9054 72.9102Z" fill="#FF642D"/>
<path d="M53.9054 92.6396V110.237C53.9054 113.701 50.7718 116.824 45.7196 119.041C40.9233 121.151 34.411 122.451 27.2378 122.451C20.0647 122.451 13.5523 121.151 8.75603 119.041C3.70391 116.824 0.570312 113.701 0.570312 110.237V92.6396C0.570312 96.1037 3.70391 99.2266 8.75603 101.444C13.5523 103.554 20.0647 104.854 27.2378 104.854C34.411 104.854 40.9233 103.554 45.7196 101.444C50.7718 99.2266 53.9054 96.1037 53.9054 92.6396Z" fill="#FF8357"/>
<path d="M169.023 53.1814C169.023 56.6454 165.889 59.7684 160.837 61.9853C156.041 64.0957 149.528 65.396 142.355 65.396C135.182 65.396 128.67 64.0957 123.873 61.9853C118.821 59.7684 115.688 56.6454 115.688 53.1814C115.688 46.4346 127.625 40.9668 142.355 40.9668C157.085 40.9668 169.023 46.4346 169.023 53.1814Z" fill="#FFD1C0"/>
<path d="M169.023 53.1807V70.7778C169.023 74.2418 165.889 77.3648 160.837 79.5817C156.041 81.6921 149.528 82.9924 142.355 82.9924C135.182 82.9924 128.67 81.6921 123.873 79.5817C118.821 77.3648 115.688 74.2418 115.688 70.7778V53.1807C115.688 56.6447 118.821 59.7676 123.873 61.9846C128.67 64.0949 135.182 65.3953 142.355 65.3953C149.528 65.3953 156.041 64.0949 160.837 61.9846C165.889 59.7676 169.023 56.6447 169.023 53.1807Z" fill="#FF8357"/>
<path d="M169.023 72.9102V90.5073C169.023 93.9713 165.889 97.0942 160.837 99.3112C156.041 101.422 149.528 102.722 142.355 102.722C135.182 102.722 128.67 101.422 123.873 99.3112C118.821 97.0942 115.688 93.9713 115.688 90.5073V72.9102C115.688 76.3742 118.821 79.4971 123.873 81.7141C128.67 83.8244 135.182 85.1248 142.355 85.1248C149.528 85.1248 156.041 83.8244 160.837 81.7141C165.889 79.4971 169.023 76.3742 169.023 72.9102Z" fill="#FF642D"/>
<path d="M169.023 92.6396V110.237C169.023 113.701 165.889 116.824 160.837 119.041C156.041 121.151 149.528 122.451 142.355 122.451C135.182 122.451 128.67 121.151 123.873 119.041C118.821 116.824 115.688 113.701 115.688 110.237V92.6396C115.688 96.1037 118.821 99.2266 123.873 101.444C128.67 103.554 135.182 104.854 142.355 104.854C149.528 104.854 156.041 103.554 160.837 101.444C165.889 99.2266 169.023 96.1037 169.023 92.6396Z" fill="#FF8357"/>
<path d="M111.46 12.8396C111.46 16.3036 108.326 19.4266 103.274 21.6435C98.478 23.7539 91.9657 25.0542 84.7925 25.0542C77.6194 25.0542 71.107 23.7539 66.3107 21.6435C61.2586 19.4266 58.125 16.3036 58.125 12.8396C58.125 6.0928 70.0625 0.625 84.7925 0.625C99.5225 0.625 111.46 6.0928 111.46 12.8396Z" fill="#FFD1C0"/>
<path d="M111.46 12.8389V30.436C111.46 33.9 108.326 37.023 103.274 39.2399C98.478 41.3503 91.9657 42.6506 84.7925 42.6506C77.6194 42.6506 71.107 41.3503 66.3107 39.2399C61.2586 37.023 58.125 33.9 58.125 30.436V12.8389C58.125 16.3029 61.2586 19.4258 66.3107 21.6428C71.107 23.7532 77.6194 25.0535 84.7925 25.0535C91.9657 25.0535 98.478 23.7532 103.274 21.6428C108.326 19.4258 111.46 16.3029 111.46 12.8389Z" fill="#FF8357"/>
<path d="M111.46 32.5684V50.1655C111.46 53.6295 108.326 56.7525 103.274 58.9694C98.478 61.0798 91.9657 62.3801 84.7925 62.3801C77.6194 62.3801 71.107 61.0798 66.3107 58.9694C61.2586 56.7525 58.125 53.6295 58.125 50.1655V32.5684C58.125 36.0324 61.2586 39.1553 66.3107 41.3723C71.107 43.4826 77.6194 44.783 84.7925 44.783C91.9657 44.783 98.478 43.4826 103.274 41.3723C108.326 39.1553 111.46 36.0324 111.46 32.5684Z" fill="#FF642D"/>
<path d="M111.46 52.2979V69.895C111.46 73.359 108.326 76.4819 103.274 78.6989C98.478 80.8093 91.9657 82.1096 84.7925 82.1096C77.6194 82.1096 71.107 80.8093 66.3107 78.6989C61.2586 76.4819 58.125 73.359 58.125 69.895V52.2979C58.125 55.7619 61.2586 58.8848 66.3107 61.1018C71.107 63.2121 77.6194 64.5125 84.7925 64.5125C91.9657 64.5125 98.478 63.2121 103.274 61.1018C108.326 58.8848 111.46 55.7619 111.46 52.2979Z" fill="#FF8357"/>
<path d="M111.46 72.0264V89.6235C111.46 93.0875 108.326 96.2105 103.274 98.4274C98.4887 100.538 91.9657 101.838 84.7925 101.838C77.6194 101.838 71.107 100.538 66.3107 98.4274C61.2586 96.2105 58.125 93.0875 58.125 89.6235V72.0264C58.125 75.4904 61.2586 78.6133 66.3107 80.8303C71.107 82.9407 77.6194 84.241 84.7925 84.241C91.9657 84.241 98.478 82.9407 103.274 80.8303C108.326 78.6133 111.46 75.4904 111.46 72.0264Z" fill="#FF642D"/>
<path d="M111.46 91.7549V109.352C111.46 116.099 99.5225 121.567 84.7925 121.567C70.0625 121.567 58.125 116.099 58.125 109.352V91.7549C58.125 95.2189 61.2586 98.3418 66.3107 100.559C71.107 102.669 77.6194 103.97 84.7925 103.97C91.9657 103.97 98.4887 102.669 103.274 100.559C108.326 98.3418 111.46 95.2189 111.46 91.7549Z" fill="#FF8357"/>
</svg>
