<svg width="17" height="17" viewBox="0 0 17 17" fill="none" xmlns="http://www.w3.org/2000/svg">
<path d="M0.23093 6.02633H3.86687V16.9762H0.23093V6.02633ZM2.07294 0.748047C0.828773 0.748047 0.015625 1.56544 0.015625 2.63872C0.015625 3.712 0.80494 4.53101 2.02567 4.53101H2.0487C3.3171 4.53101 4.10682 3.68977 4.10682 2.63872C4.08298 1.56544 3.3171 0.748047 2.07294 0.748047ZM12.7941 5.76923C10.8641 5.76923 9.99962 6.8316 9.5173 7.57663V6.02633H5.88015C5.92822 7.05353 5.88015 16.9762 5.88015 16.9762H9.5173V10.8612C9.5173 10.5337 9.54114 10.2075 9.63687 9.97262C9.90025 9.31895 10.4985 8.64183 11.5023 8.64183C12.8192 8.64183 13.3451 9.64639 13.3451 11.1179V16.9766H16.9815V10.6974C16.9815 7.33408 15.1879 5.76923 12.7941 5.76923Z" fill="white"/>
</svg>
