<svg width="173" height="166" viewBox="0 0 173 166" fill="none" xmlns="http://www.w3.org/2000/svg">
<path d="M149.631 141.921H102.102V165.87H149.631V141.921Z" fill="#7D73FF"/>
<path d="M162.756 31.05C168.034 31.05 172.342 35.3574 172.342 40.6985V91.2954C172.342 100.886 168.291 110.047 161.216 116.479L148.635 127.908C144.726 131.469 142.501 136.494 142.501 141.777V141.892H103.359V136.752H109.835V121.188C109.835 114.785 112.374 108.64 116.853 104.103L138.136 82.6807C140.96 79.8379 145.525 79.8091 148.378 82.6233C151.259 85.4661 151.288 90.1468 148.435 93.0183L133.4 108.151L150.774 90.6637C152.6 88.8259 153.599 86.3276 153.57 83.7432L153.142 40.6985C153.085 35.3286 157.393 30.9639 162.728 30.9639L162.756 31.05Z" fill="#B1ABFF"/>
<path d="M143.272 149.071H137.852V154.527H143.272V149.071Z" fill="#F2F1FF"/>
<path d="M23.0179 165.898H70.5469V141.95H23.0179V165.898Z" fill="#7D73FF"/>
<path d="M9.92161 31.05C4.61525 31.05 0.335938 35.3574 0.335938 40.6697V91.2954C0.335938 100.886 4.38702 110.047 11.4622 116.479L24.0434 127.908C27.9518 131.469 30.177 136.494 30.177 141.777V141.892H69.3185V136.752H62.8425V121.188C62.8425 114.785 60.3034 108.64 55.8244 104.103L34.5419 82.6807C31.7176 79.8379 27.153 79.8091 24.3001 82.6233C21.4187 85.4661 21.3902 90.1468 24.2431 93.0183L39.2777 108.151L21.9037 90.6637C20.0779 88.8259 19.0793 86.3276 19.1079 83.7432L19.5358 40.6985C19.5929 35.3286 15.285 30.9639 9.95013 30.9639L9.92161 31.05Z" fill="#B1ABFF"/>
<path d="M29.4077 154.556H34.8281V149.1H29.4077V154.556Z" fill="#F2F1FF"/>
<path d="M86.3235 105.338C114.984 105.338 138.217 81.9517 138.217 53.1038C138.217 24.256 114.984 0.870117 86.3235 0.870117C57.6634 0.870117 34.4297 24.256 34.4297 53.1038C34.4297 81.9517 57.6634 105.338 86.3235 105.338Z" fill="#7D73FF"/>
<path d="M86.3245 95.5164C109.596 95.5164 128.462 76.5275 128.462 53.1034C128.462 29.6794 109.596 10.6904 86.3245 10.6904C63.0529 10.6904 44.1875 29.6794 44.1875 53.1034C44.1875 76.5275 63.0529 95.5164 86.3245 95.5164Z" fill="white"/>
<path d="M72.8857 69.2705C70.6605 69.2705 68.5208 68.7536 66.4953 67.7486C64.4697 66.7435 62.815 65.2503 61.5312 63.2976L66.2956 58.1001C67.3226 59.421 68.4352 60.4261 69.6334 61.0865C70.8316 61.7757 71.9728 62.0916 73.1139 62.0916C74.0269 62.0916 74.7686 61.8619 75.3677 61.3737C75.9383 60.9142 76.2521 60.2825 76.2521 59.4785C76.2521 58.6744 75.8527 57.8991 75.0824 57.1525C74.2836 56.4059 73.0854 55.5731 71.4593 54.6255C68.4923 52.9026 66.267 51.1796 64.8406 49.4567C63.4141 47.7338 62.7009 45.8098 62.7009 43.6274C62.7009 42.2204 62.9862 40.9569 63.5283 39.8083C64.0703 38.6596 64.8121 37.7407 65.7535 36.9941C66.695 36.2475 67.779 35.7019 69.0058 35.2999C70.2325 34.8979 71.5163 34.7256 72.9142 34.7256C74.8827 34.7256 76.7941 35.1276 78.62 35.9316C80.4458 36.7357 81.9008 37.8269 82.9564 39.2627L78.3632 44.2879C76.9368 42.6798 75.1109 41.8758 72.9428 41.8758C72.2581 41.8758 71.659 42.0481 71.1454 42.4214C70.6319 42.7947 70.3752 43.2828 70.3752 43.9146C70.3752 44.575 70.689 45.1781 71.3166 45.7524C71.9442 46.3267 73.1139 47.102 74.7971 48.0496C76.9083 49.2844 78.5915 50.433 79.8467 51.5529C81.102 52.6441 82.0434 53.8502 82.6996 55.1998C83.3558 56.5207 83.6981 57.9852 83.6981 59.5933C83.6981 61.1152 83.4128 62.4649 82.8137 63.6997C82.2146 64.9344 81.4158 65.9395 80.4173 66.7435C79.4188 67.5476 78.2491 68.1506 76.9653 68.5526C75.6815 68.9833 74.3407 69.1843 72.9428 69.1843L72.8857 69.2705Z" fill="#7D73FF"/>
<path d="M87.2942 68.6673V35.4434H100.075C102.357 35.4434 104.44 35.9315 106.323 36.9079C108.177 37.8842 109.661 39.2625 110.716 41.0429C111.8 42.8233 112.314 44.8334 112.314 47.0445C112.314 48.9397 111.886 50.6626 111.03 52.2133C110.174 53.7639 109.005 55.0561 107.521 56.0899C109.975 59.8516 112 64.0441 113.655 68.6386H105.752C104.782 65.3076 103.099 61.8905 100.674 58.4159C100.189 58.4446 99.8183 58.4733 99.5615 58.4733H94.8257V68.6386H87.2656L87.2942 68.6673ZM94.8543 51.9261H99.5045C100.988 51.9261 102.186 51.4954 103.128 50.6339C104.069 49.7725 104.526 48.5951 104.526 47.1019C104.526 45.6948 104.069 44.5749 103.128 43.6847C102.186 42.7946 100.988 42.3638 99.4759 42.3638H94.8257V51.9261H94.8543Z" fill="#7D73FF"/>
<path d="M143.837 136.896H103.383V141.922H143.837V136.896Z" fill="#7D73FF"/>
<path d="M69.2897 136.896H28.8359V141.922H69.2897V136.896Z" fill="#7D73FF"/>
</svg>
