<svg width="198" height="151" viewBox="0 0 198 151" fill="none" xmlns="http://www.w3.org/2000/svg">
<path d="M31.6062 32.3938L38.5044 46.712C38.8675 47.4752 39.5937 47.984 40.4287 48.093L56.4399 50.4188C58.5457 50.7095 59.3445 53.326 57.7833 54.7433L46.1652 65.5001C45.5479 66.0816 45.2575 66.9537 45.4027 67.8259L48.3799 83.8885C48.7792 85.9962 46.5282 87.5952 44.6766 86.5413L30.6622 78.6191C29.8998 78.183 28.9558 78.183 28.1934 78.6191L14.179 86.5413C12.3273 87.5952 10.0763 85.9962 10.4757 83.8885L13.4528 67.8259C13.5981 66.9901 13.3076 66.1179 12.6904 65.5001L0.927039 54.7433C-0.634148 53.2897 0.164599 50.7095 2.27039 50.4188L18.2816 48.093C19.1167 47.984 19.8428 47.4388 20.2059 46.712L27.1042 32.3938C28.0118 30.5041 30.7348 30.5041 31.6425 32.3938H31.6062Z" fill="#FF642D"/>
<g filter="url(#filter0_d_532_765)">
<path d="M101.602 32.3938L108.5 46.712C108.863 47.4752 109.589 47.984 110.424 48.093L126.435 50.4188C128.541 50.7095 129.34 53.326 127.779 54.7433L116.161 65.5001C115.543 66.0816 115.253 66.9537 115.398 67.8259L118.375 83.8885C118.775 85.9962 116.524 87.5952 114.672 86.5413L100.658 78.6191C99.8952 78.183 98.9512 78.183 98.1887 78.6191L84.1744 86.5413C82.3227 87.5952 80.0717 85.9962 80.4711 83.8885L83.4482 67.8259C83.5935 66.9901 83.303 66.1179 82.6858 65.5001L71.0677 54.7433C69.5065 53.2897 70.3052 50.7095 72.411 50.4188L88.4223 48.093C89.2573 47.984 89.9834 47.4388 90.3465 46.712L97.2448 32.3938C98.1524 30.5041 100.875 30.5041 101.783 32.3938H101.602Z" fill="white"/>
</g>
<path d="M170.188 32.3938L177.086 46.712C177.449 47.4752 178.175 47.984 179.01 48.093L195.021 50.4188C197.127 50.7095 197.926 53.326 196.365 54.7433L184.746 65.5001C184.129 66.0816 183.839 66.9537 183.984 67.8259L186.961 83.8885C187.361 85.9962 185.11 87.5952 183.258 86.5413L169.244 78.6191C168.481 78.183 167.537 78.183 166.775 78.6191L152.76 86.5413C150.909 87.5952 148.658 85.9962 149.057 83.8885L152.034 67.8259C152.179 66.9901 151.889 66.1179 151.272 65.5001L139.654 54.7433C138.092 53.2897 138.891 50.7095 140.997 50.4188L157.008 48.093C157.843 47.984 158.569 47.4388 158.932 46.712L165.831 32.3938C166.738 30.5041 169.461 30.5041 170.369 32.3938H170.188Z" fill="#FFB196"/>
<path d="M118.555 26.979L135.691 3.32129" stroke="#FF642D" stroke-width="5" stroke-linecap="round" stroke-linejoin="round"/>
<path d="M81.8858 26.9793L66.3828 11.4619" stroke="#FF642D" stroke-width="5" stroke-linecap="round" stroke-linejoin="round"/>
<path d="M91.6572 143.808L72.1332 114.718C69.429 110.702 70.4394 105.259 74.3917 102.493C78.4332 99.6671 83.9902 100.649 86.7836 104.724L96.1444 118.287V70.6662C96.1444 66.621 99.4132 63.3193 103.484 63.3193C107.526 63.3193 110.824 66.5912 110.824 70.6662V99.6969V85.9252C110.824 82.2963 113.766 79.3219 117.422 79.3219H117.511C121.136 79.3219 124.108 82.2666 124.108 85.9252V92.6474C124.108 89.0186 127.05 86.0441 130.705 86.0441C134.33 86.0441 137.302 88.9889 137.302 92.6474V101.333V97.1983C137.302 93.9562 139.917 91.3387 143.156 91.3387C146.782 91.3387 149.753 94.2834 149.753 97.942V133.159C149.753 142.767 141.997 150.53 132.399 150.53H104.317C99.2647 150.53 94.5397 148.002 91.7166 143.808H91.6572Z" fill="#FF642D"/>
<defs>
<filter id="filter0_d_532_765" x="61.25" y="25.9766" width="78.3438" height="75.8984" filterUnits="userSpaceOnUse" color-interpolation-filters="sRGB">
<feFlood flood-opacity="0" result="BackgroundImageFix"/>
<feColorMatrix in="SourceAlpha" type="matrix" values="0 0 0 0 0 0 0 0 0 0 0 0 0 0 0 0 0 0 127 0" result="hardAlpha"/>
<feOffset dx="1" dy="5"/>
<feGaussianBlur stdDeviation="5"/>
<feComposite in2="hardAlpha" operator="out"/>
<feColorMatrix type="matrix" values="0 0 0 0 0.8875 0 0 0 0 0.425163 0 0 0 0 0.258854 0 0 0 0.5 0"/>
<feBlend mode="normal" in2="BackgroundImageFix" result="effect1_dropShadow_532_765"/>
<feBlend mode="normal" in="SourceGraphic" in2="effect1_dropShadow_532_765" result="shape"/>
</filter>
</defs>
</svg>
