<svg width="177" height="129" viewBox="0 0 177 129" fill="none" xmlns="http://www.w3.org/2000/svg">
<path d="M88.4989 14.0729C82.4891 14.0729 77.6016 18.9873 77.6016 25.03L78.1252 68.9838L98.7478 67.5045L99.3712 25.005C99.3712 18.9622 94.4836 14.0479 88.4739 14.0479L88.4989 14.0729Z" fill="#FF936C"/>
<path d="M170.568 67.5292L132.465 8.23047L99.3493 19.0873L98.4766 91.5245L119.274 64.4201L140.495 60.8095L164.683 66.9776L170.568 67.5292Z" fill="#FFB196"/>
<path d="M117.68 37.5162C127.802 37.5162 136.008 29.2652 136.008 19.0872C136.008 8.90914 127.802 0.658203 117.68 0.658203C107.557 0.658203 99.3516 8.90914 99.3516 19.0872C99.3516 29.2652 107.557 37.5162 117.68 37.5162Z" fill="#FFB196"/>
<path d="M137.727 128.633C159.404 128.633 176.977 110.964 176.977 89.1678C176.977 67.3715 159.404 49.7021 137.727 49.7021C116.049 49.7021 98.4766 67.3715 98.4766 89.1678C98.4766 110.964 116.049 128.633 137.727 128.633Z" fill="#FF642D"/>
<path d="M6.4375 67.5292L44.5406 8.23047L77.6564 19.0873L78.5292 91.5245L57.7321 64.4201L36.511 60.8095L12.3225 66.9776L6.4375 67.5292Z" fill="#FFB196"/>
<path d="M59.3284 37.5162C69.4509 37.5162 77.6568 29.2652 77.6568 19.0872C77.6568 8.90914 69.4509 0.658203 59.3284 0.658203C49.2059 0.658203 41 8.90914 41 19.0872C41 29.2652 49.2059 37.5162 59.3284 37.5162Z" fill="#FFB196"/>
<path d="M39.2502 128.633C60.9275 128.633 78.5004 110.964 78.5004 89.1678C78.5004 67.3715 60.9275 49.7021 39.2502 49.7021C17.5729 49.7021 0 67.3715 0 89.1678C0 110.964 17.5729 128.633 39.2502 128.633Z" fill="#FF642D"/>
<path d="M137.722 113.915C151.315 113.915 162.334 102.835 162.334 89.1674C162.334 75.4998 151.315 64.4199 137.722 64.4199C124.129 64.4199 113.109 75.4998 113.109 89.1674C113.109 102.835 124.129 113.915 137.722 113.915Z" fill="white"/>
<path d="M39.253 113.915C52.8461 113.915 63.8655 102.835 63.8655 89.1674C63.8655 75.4998 52.8461 64.4199 39.253 64.4199C25.66 64.4199 14.6406 75.4998 14.6406 89.1674C14.6406 102.835 25.66 113.915 39.253 113.915Z" fill="white"/>
<path d="M88.4986 79.4139C94.2278 79.4139 98.8723 74.7439 98.8723 68.9833C98.8723 63.2227 94.2278 58.5527 88.4986 58.5527C82.7694 58.5527 78.125 63.2227 78.125 68.9833C78.125 74.7439 82.7694 79.4139 88.4986 79.4139Z" fill="#FF642D"/>
</svg>
