<svg width="179" height="186" viewBox="0 0 179 186" fill="none" xmlns="http://www.w3.org/2000/svg">
<path d="M18.5474 0H107.547C117.68 0 125.9 8.26005 125.9 18.4433V158.738H0.195312V18.4433C0.195312 8.26005 8.41456 0 18.5474 0Z" fill="#B1ABFF"/>
<path d="M35.0475 24.1494H26.2008C22.06 24.1494 18.7031 27.5229 18.7031 31.6844V40.5749C18.7031 44.7364 22.06 48.1099 26.2008 48.1099H35.0475C39.1884 48.1099 42.5452 44.7364 42.5452 40.5749V31.6844C42.5452 27.5229 39.1884 24.1494 35.0475 24.1494Z" fill="white"/>
<path d="M67.485 24.1494H58.6383C54.4975 24.1494 51.1406 27.5229 51.1406 31.6844V40.5749C51.1406 44.7364 54.4975 48.1099 58.6383 48.1099H67.485C71.6259 48.1099 74.9827 44.7364 74.9827 40.5749V31.6844C74.9827 27.5229 71.6259 24.1494 67.485 24.1494Z" fill="white"/>
<path d="M35.0475 57.8516H26.2008C22.06 57.8516 18.7031 61.2251 18.7031 65.3865V74.2771C18.7031 78.4385 22.06 81.812 26.2008 81.812H35.0475C39.1884 81.812 42.5452 78.4385 42.5452 74.2771V65.3865C42.5452 61.2251 39.1884 57.8516 35.0475 57.8516Z" fill="white"/>
<path d="M67.485 57.8516H58.6383C54.4975 57.8516 51.1406 61.2251 51.1406 65.3865V74.2771C51.1406 78.4385 54.4975 81.812 58.6383 81.812H67.485C71.6259 81.812 74.9827 78.4385 74.9827 74.2771V65.3865C74.9827 61.2251 71.6259 57.8516 67.485 57.8516Z" fill="white"/>
<path d="M99.9225 24.1494H91.0758C86.935 24.1494 83.5781 27.5229 83.5781 31.6844V40.5749C83.5781 44.7364 86.935 48.1099 91.0758 48.1099H99.9225C104.063 48.1099 107.42 44.7364 107.42 40.5749V31.6844C107.42 27.5229 104.063 24.1494 99.9225 24.1494Z" fill="white"/>
<path d="M99.9225 57.8516H91.0758C86.935 57.8516 83.5781 61.2251 83.5781 65.3865V74.2771C83.5781 78.4385 86.935 81.812 91.0758 81.812H99.9225C104.063 81.812 107.42 78.4385 107.42 74.2771V65.3865C107.42 61.2251 104.063 57.8516 99.9225 57.8516Z" fill="white"/>
<path d="M36.5843 101.706H89.5074C93.7425 101.706 97.162 105.142 97.162 109.399V158.77H28.9297V109.399C28.9297 105.142 32.3491 101.706 36.5843 101.706Z" fill="white"/>
<path d="M175.118 142.565L168.028 138.435L167.903 129.639L174.867 125.351C177.754 123.554 178.663 119.739 176.907 116.839L166.303 99.4991C164.515 96.5986 160.719 95.6844 157.833 97.4499L152.908 100.508L145.128 96.1573V90.3248C145.128 86.8883 142.367 84.1455 138.979 84.1455H118.744C115.325 84.1455 112.596 86.9199 112.596 90.3248V97.3238L104.941 101.769L98.9178 98.2696C95.9689 96.5671 92.2044 97.576 90.5103 100.54L80.3774 118.163C78.6834 121.127 79.6873 124.91 82.6362 126.612L89.7261 130.742L89.8515 139.538L82.8871 143.826C80.001 145.623 79.0912 149.438 80.848 152.338L91.4515 169.678C93.2396 172.579 97.0355 173.493 99.9217 171.727L104.847 168.669L112.627 173.02V178.852C112.627 182.289 115.388 185.032 118.776 185.032H139.01C142.43 185.032 145.159 182.257 145.159 178.852V171.853L152.813 167.408L158.837 170.908C161.786 172.61 165.55 171.601 167.244 168.638L177.377 151.014C179.071 148.051 178.067 144.267 175.118 142.565Z" fill="#7D73FF"/>
<path d="M128.844 154.987C140.071 154.987 149.173 145.84 149.173 134.557C149.173 123.275 140.071 114.128 128.844 114.128C117.617 114.128 108.516 123.275 108.516 134.557C108.516 145.84 117.617 154.987 128.844 154.987Z" fill="white"/>
</svg>
