<svg width="135" height="155" viewBox="0 0 135 155" fill="none" xmlns="http://www.w3.org/2000/svg">
<path d="M118.202 6.31445C118.149 6.47298 124.112 14.3202 128.883 20.5293C132.594 25.3645 134.608 31.3094 134.608 37.3864V132.742C134.608 144.685 124.881 154.382 112.901 154.382H23.2606C18.4102 154.382 14.4609 150.445 14.4609 145.61C14.4609 138.423 14.4609 129.519 14.4609 130.021C14.4609 130.866 118.202 6.31445 118.202 6.31445Z" fill="#7D73FF"/>
<path d="M23.2076 0H109.429C120.004 0 128.592 8.56063 128.592 19.1029V128.409C128.592 138.952 120.004 147.512 109.429 147.512H23.2076C18.3837 147.512 14.4609 143.602 14.4609 138.793V8.71916C14.4609 3.91041 18.3837 0 23.2076 0Z" fill="#B1ABFF"/>
<path d="M25.7008 14.4004H7.96887C4.01652 14.4004 0.8125 17.5943 0.8125 21.5342V26.6072C0.8125 30.5471 4.01652 33.7411 7.96887 33.7411H25.7008C29.6531 33.7411 32.8571 30.5471 32.8571 26.6072V21.5342C32.8571 17.5943 29.6531 14.4004 25.7008 14.4004Z" fill="#7D73FF"/>
<path d="M25.7008 54.4287H7.96887C4.01652 54.4287 0.8125 57.6226 0.8125 61.5626V66.6355C0.8125 70.5754 4.01652 73.7694 7.96887 73.7694H25.7008C29.6531 73.7694 32.8571 70.5754 32.8571 66.6355V61.5626C32.8571 57.6226 29.6531 54.4287 25.7008 54.4287Z" fill="#7D73FF"/>
<path d="M25.7008 94.4307H7.96887C4.01652 94.4307 0.8125 97.6246 0.8125 101.565V106.637C0.8125 110.577 4.01652 113.771 7.96887 113.771H25.7008C29.6531 113.771 32.8571 110.577 32.8571 106.637V101.565C32.8571 97.6246 29.6531 94.4307 25.7008 94.4307Z" fill="#7D73FF"/>
<path d="M81.5803 58.5779C89.3463 58.5779 95.999 63.3074 98.8086 70.0185C103.155 65.6589 105.832 59.6612 105.832 53.0294C105.832 39.6864 94.9653 28.8535 81.5803 28.8535C68.1952 28.8535 57.3281 39.6864 57.3281 53.0294C57.3281 59.6612 60.0051 65.6589 64.352 70.0185C67.1615 63.3074 73.8143 58.5779 81.5803 58.5779Z" fill="white"/>
<path d="M98.8082 70.4679C95.9986 63.7568 89.3459 59.0273 81.5799 59.0273C73.8139 59.0273 67.1611 63.7568 64.3516 70.4679C68.7514 74.9068 74.8476 77.6546 81.5799 77.6546C88.3122 77.6546 94.4083 74.9068 98.8082 70.4679Z" fill="#7D73FF"/>
<path d="M81.5823 59.0269C86.896 59.0269 91.2036 54.7328 91.2036 49.4358C91.2036 44.1388 86.896 39.8447 81.5823 39.8447C76.2686 39.8447 71.9609 44.1388 71.9609 49.4358C71.9609 54.7328 76.2686 59.0269 81.5823 59.0269Z" fill="#7D73FF"/>
<path d="M57.3203 94.8271H105.825" stroke="white" stroke-width="6" stroke-miterlimit="10" stroke-linecap="round"/>
<path d="M57.3203 109.386H105.825" stroke="white" stroke-width="6" stroke-miterlimit="10" stroke-linecap="round"/>
</svg>
