<svg width="151" height="146" viewBox="0 0 151 146" fill="none" xmlns="http://www.w3.org/2000/svg">
<path d="M94.1829 145.999L75.4129 130.042L56.6328 145.999V112.205H94.1829V145.999Z" fill="#FF936C"/>
<path d="M121.486 0H29.3338C13.3791 0 0.445312 12.9347 0.445312 28.8905V76.1704C0.445312 92.1262 13.3791 105.061 29.3338 105.061H121.486C137.44 105.061 150.374 92.1262 150.374 76.1704V28.8905C150.374 12.9347 137.44 0 121.486 0Z" fill="#FFB196"/>
<path d="M95.1099 29.5537H55.7109" stroke="#FF642D" stroke-width="10" stroke-miterlimit="10" stroke-linecap="round"/>
<path d="M31.4141 52.5352H119.406" stroke="white" stroke-width="10" stroke-miterlimit="10" stroke-linecap="round"/>
<path d="M75.4122 123.642C90.0684 123.642 101.949 111.76 101.949 97.1025C101.949 82.4454 90.0684 70.5635 75.4122 70.5635C60.7561 70.5635 48.875 82.4454 48.875 97.1025C48.875 111.76 60.7561 123.642 75.4122 123.642Z" fill="#FF642D"/>
</svg>
