<svg width="149" height="148" viewBox="0 0 149 148" fill="none" xmlns="http://www.w3.org/2000/svg">
<path d="M35.0391 92.4307L76.5018 105.798L65.9842 139.415C64.5181 144.101 59.6021 146.685 54.9858 145.197L30.2177 137.212C25.6014 135.723 23.0554 130.733 24.5215 126.047L35.0391 92.4307Z" fill="#7D73FF"/>
<path d="M100.303 5.38281L9.80118 65.8889C2.67957 70.7608 -1.14663 79.4269 0.37943 88.0033C0.401547 88.1829 0.445781 88.3401 0.467898 88.5197C2.12666 97.2083 8.80592 104.033 17.3209 105.942L122.199 128.146L100.303 5.38281Z" fill="#B2ABFF"/>
<path d="M125.239 128.362C138.123 125.992 143.625 96.377 137.528 62.2148C131.43 28.0525 116.042 2.27964 103.157 4.64947C90.273 7.0193 84.7712 36.6344 90.8689 70.7967C96.9666 104.959 112.355 130.732 125.239 128.362Z" fill="#7D73FF"/>
<mask id="mask0_532_763" style="mask-type:luminance" maskUnits="userSpaceOnUse" x="88" y="4" width="53" height="125">
<path d="M125.231 128.361C138.116 125.991 143.617 96.3761 137.52 62.2138C131.422 28.0515 116.034 2.27866 103.15 4.64849C90.2652 7.01833 84.7634 36.6334 90.8611 70.7957C96.9587 104.958 112.347 130.731 125.231 128.361Z" fill="white"/>
</mask>
<g mask="url(#mask0_532_763)">
<path d="M94.525 92.9198C106.288 92.9198 115.823 83.2399 115.823 71.2992C115.823 59.3586 106.288 49.6787 94.525 49.6787C82.7622 49.6787 73.2266 59.3586 73.2266 71.2992C73.2266 83.2399 82.7622 92.9198 94.525 92.9198Z" fill="white"/>
</g>
</svg>
